<?xml version="1.0" encoding="utf-8"?>
<!-- Generator: Adobe Illustrator 15.0.2, SVG Export Plug-In . SVG Version: 6.00 Build 0)  -->
<!DOCTYPE svg PUBLIC "-//W3C//DTD SVG 1.1//EN" "http://www.w3.org/Graphics/SVG/1.1/DTD/svg11.dtd">
<svg version="1.1" xmlns="http://www.w3.org/2000/svg" xmlns:xlink="http://www.w3.org/1999/xlink" x="0px" y="0px" width="740px"
	 height="379.328px" viewBox="0 0 740 379.328" enable-background="new 0 0 740 379.328" xml:space="preserve">
<g id="IMG" display="none">
	<path display="inline" fill="none" stroke="#000000" stroke-miterlimit="10" d="M32.318,129.749
		c56.685-40.31,210.026-109.836,218.553-114.63c8.527-4.794,27.083-9.962,57.315-9.962c30.232,0,99.129-0.708,116.127,0
		s41.787,4.249,46.744,21.72c26.205,131.968,50.992,163.336,209.639,211.177c76.991,23.217,57.039,107.058,4.957,117.681
		c-45.666,9.315-150.854,31.872-277.953,9.209c-30.447-4.981-85.658-17.271-125.967-23.569s-74.081,4.098-98.22,9.403
		c-24.14,5.306-49.902,11.556-88.53,18.414c-53.042,9.418-74.365,0.709-77.781-45.453c-2.789-37.687,1.26-161.238,1.26-142.343
		S14.695,138.585,32.318,129.749z"/>
	<line display="inline" fill="none" stroke="#000000" stroke-miterlimit="10" x1="577.522" y1="54.421" x2="577.522" y2="141.401"/>
	<line display="inline" fill="none" stroke="#000000" stroke-miterlimit="10" x1="652.407" y1="98.1" x2="577.079" y2="141.59"/>
	<line display="inline" fill="none" stroke="#000000" stroke-miterlimit="10" x1="652.85" y1="184.892" x2="577.522" y2="141.401"/>
	<g id="Layer_3_copy" display="inline">
		<circle id="fsr_x5F_4_1_" fill="none" stroke="#666666" stroke-miterlimit="10" cx="661.945" cy="298.997" r="39.68"/>
		<circle id="fsr_x5F_3_1_" fill="none" stroke="#666666" stroke-miterlimit="10" cx="85.209" cy="245.699" r="45.348"/>
		<circle id="fsr_x5F_2_1_" fill="none" stroke="#666666" stroke-miterlimit="10" cx="205.246" cy="233.684" r="45.348"/>
		<circle id="fsr_x5F_1_1_" fill="none" stroke="#666666" stroke-miterlimit="10" cx="324.563" cy="190.213" r="45.348"/>
		<circle id="fsr_x5F_0_1_" fill="none" stroke="#666666" stroke-miterlimit="10" cx="382.161" cy="78.499" r="45.348"/>
		<path id="slide_x5F_3_2_" fill="none" stroke="#666666" stroke-miterlimit="10" d="M552.145,354.859
			c-2.242,1.622-5.442,1.029-7.15-1.329L395.876,147.638c-1.708-2.357-1.276-5.583,0.968-7.207l49.724-36.013
			c2.242-1.624,5.442-1.03,7.15,1.327l149.119,205.895c1.708,2.357,1.273,5.583-0.97,7.204L552.145,354.859z"/>
		<path id="slide_x5F_2_1_" fill="none" stroke="#666666" stroke-miterlimit="10" d="M214.133,142.048l-105.015,54.195
			c-2.405,1.241-5.399,0.226-6.688-2.276L73.825,138.54c-1.289-2.5-0.387-5.531,2.019-6.772l104.821-54.096L214.133,142.048z"/>
		<path id="slide_x5F_1_1_" fill="none" stroke="#666666" stroke-miterlimit="10" d="M180.665,77.672l105.25-54.317
			c2.405-1.241,5.4-0.222,6.689,2.279l28.605,55.426c1.289,2.5,0.386,5.531-2.02,6.771l-105.057,54.217L180.665,77.672z"/>
		<path id="btn_x5F_4_1_" fill="none" stroke="#666666" stroke-miterlimit="10" d="M120.93,328.84
			c0.137,2.544-2.007,4.729-4.79,4.879l-50.303,2.716c-2.782,0.151-5.15-1.791-5.287-4.335l-0.759-14.049
			c-0.138-2.544,2.007-4.729,4.789-4.879l50.303-2.716c2.782-0.151,5.149,1.791,5.287,4.335L120.93,328.84z"/>
		<path id="btn_x5F_3_1_" fill="none" stroke="#666666" stroke-miterlimit="10" d="M208.698,317.946
			c0.267,2.533-1.762,4.825-4.533,5.118l-50.097,5.299c-2.771,0.292-5.235-1.522-5.502-4.059l-1.48-13.992
			c-0.269-2.533,1.761-4.825,4.531-5.118l50.098-5.298c2.771-0.293,5.235,1.525,5.503,4.058L208.698,317.946z"/>
		<path id="btn_x5F_2_1_" fill="none" stroke="#666666" stroke-miterlimit="10" d="M293.977,304.861
			c0.414,2.515-1.479,4.921-4.228,5.373l-49.706,8.192c-2.75,0.453-5.314-1.218-5.728-3.733l-2.289-13.883
			c-0.415-2.515,1.478-4.919,4.227-5.371l49.706-8.193c2.75-0.452,5.314,1.221,5.729,3.734L293.977,304.861z"/>
		<path id="btn_x5F_1_1_" fill="none" stroke="#666666" stroke-miterlimit="10" d="M382.621,289.197
			c0.414,2.515-1.479,4.919-4.227,5.372l-49.707,8.192c-2.75,0.453-5.315-1.217-5.728-3.733l-2.289-13.882
			c-0.415-2.515,1.478-4.919,4.227-5.372l49.707-8.193c2.748-0.452,5.314,1.221,5.729,3.733L382.621,289.197z"/>
		<g id="btn_x5F_6_1_">
			<path fill="none" stroke="#666666" stroke-miterlimit="10" d="M468.061,300.362c1.647-1.097,3.109-0.379,3.248,1.596
				l2.967,42.343c0.139,1.975-1.195,2.863-2.965,1.974l-37.923-19.062c-1.77-0.89-1.868-2.515-0.221-3.612L468.061,300.362z"/>
		</g>
		<g id="btn_x5F_5_1_">
			<path fill="none" stroke="#666666" stroke-miterlimit="10" d="M416.889,300.114c-1.647,1.097-3.109,0.379-3.248-1.596
				l-2.968-42.344c-0.139-1.975,1.195-2.863,2.965-1.974l37.923,19.062c1.77,0.89,1.868,2.516,0.221,3.612L416.889,300.114z"/>
		</g>
		<path id="btn_x5F_10_1_" fill="none" stroke="#666666" stroke-miterlimit="10" d="M493,101.692
			c-1.422,0.487-2.971-0.271-3.457-1.693l-5.583-16.301c-0.486-1.421,0.27-2.968,1.692-3.456l5.573-1.91
			c1.424-0.487,2.971,0.27,3.458,1.692l5.584,16.302c0.488,1.423-0.271,2.969-1.693,3.457L493,101.692z"/>
		<path id="btn_x5F_9_1_" fill="none" stroke="#666666" stroke-miterlimit="10" d="M519.663,153.287
			c-1.245,0.84-2.938,0.511-3.778-0.736l-9.632-14.287c-0.841-1.247-0.511-2.938,0.735-3.777l4.886-3.296
			c1.246-0.84,2.938-0.512,3.778,0.735l9.633,14.288c0.841,1.247,0.511,2.938-0.735,3.778L519.663,153.287z"/>
		<path id="btn_x5F_8_1_" fill="none" stroke="#666666" stroke-miterlimit="10" d="M565.319,189.868
			c-0.82,1.258-2.508,1.611-3.766,0.79l-14.428-9.424c-1.257-0.822-1.61-2.509-0.789-3.766l3.225-4.937
			c0.82-1.257,2.508-1.612,3.765-0.79l14.428,9.425c1.258,0.822,1.611,2.508,0.79,3.767L565.319,189.868z"/>
		<path id="btn_x5F_7_1_" fill="none" stroke="#666666" stroke-miterlimit="10" d="M621.04,215.082
			c-0.564,1.39-2.152,2.061-3.544,1.494l-15.965-6.484c-1.393-0.569-2.063-2.154-1.497-3.545l2.219-5.463
			c0.564-1.393,2.153-2.064,3.544-1.497l15.965,6.485c1.394,0.566,2.063,2.155,1.498,3.546L621.04,215.082z"/>
		<polygon id="acc_x5F_2_1_" fill="#202020" points="588.813,64.165 577.522,52.967 566.231,64.165 572.818,64.165 572.818,80.845 
			582.229,80.845 582.229,64.165 		"/>
		<polygon id="acc_x5F_1_1_" fill="#202020" points="648.798,113.223 652.85,97.847 637.507,93.667 640.8,99.372 626.354,107.711 
			631.06,115.859 645.504,107.52 		"/>
		<polygon id="acc_x5F_0_1_" fill="#202020" points="637.506,189.583 652.85,185.404 648.796,170.025 645.503,175.73 
			631.059,167.39 626.354,175.537 640.799,183.878 		"/>
	</g>
	<text transform="matrix(1 0 0 1 654.4072 193.3857)" display="inline" font-family="'AvantGarde-Bold'" font-size="24">x</text>
	<text transform="matrix(1 0 0 1 652.8496 104.7632)" display="inline" font-family="'AvantGarde-Bold'" font-size="24">y</text>
	<text transform="matrix(1 0 0 1 571.9873 49.1323)" display="inline" font-family="'AvantGarde-Bold'" font-size="24">z</text>
</g>
<g id="GuitarWing_hotspots">
	<circle id="fsr_x5F_4" fill="none" stroke="#000000" stroke-miterlimit="10" cx="607.333" cy="239.358" r="31.5"/>
	<circle id="fsr_x5F_3" fill="none" stroke="#000000" stroke-miterlimit="10" cx="149.487" cy="197.048" r="36"/>
	<circle id="fsr_x5F_2" fill="none" stroke="#000000" stroke-miterlimit="10" cx="244.78" cy="187.509" r="36"/>
	<circle id="fsr_x5F_1" fill="none" stroke="#000000" stroke-miterlimit="10" cx="339.5" cy="153" r="36"/>
	<circle id="fsr_x5F_0" fill="none" stroke="#000000" stroke-miterlimit="10" cx="385.225" cy="64.314" r="36"/>
	<path id="slide_x5F_3_1_" fill="none" stroke="#000000" stroke-miterlimit="10" d="M520.167,283.705
		c-1.78,1.288-4.32,0.817-5.676-1.055L396.112,119.201c-1.355-1.871-1.013-4.432,0.769-5.721l39.473-28.589
		c1.78-1.289,4.321-0.817,5.677,1.054l118.379,163.451c1.356,1.872,1.012,4.433-0.77,5.72L520.167,283.705z"/>
	<path id="slide_x5F_2" fill="none" stroke="#000000" stroke-miterlimit="10" d="M251.835,114.764l-83.367,43.023
		c-1.909,0.985-4.286,0.179-5.31-1.808l-22.708-44c-1.023-1.985-0.307-4.391,1.603-5.376l83.213-42.944L251.835,114.764z"/>
	<path id="slide_x5F_1" fill="none" stroke="#000000" stroke-miterlimit="10" d="M225.266,63.659l83.553-43.12
		c1.91-0.986,4.287-0.177,5.31,1.809l22.708,44c1.023,1.985,0.307,4.391-1.603,5.376l-83.4,43.041L225.266,63.659z"/>
	<path id="btn_x5F_4" fill="none" stroke="#000000" stroke-miterlimit="10" d="M177.845,263.05c0.109,2.02-1.594,3.754-3.803,3.873
		l-39.933,2.156c-2.209,0.119-4.088-1.422-4.197-3.441l-0.603-11.153c-0.109-2.02,1.593-3.754,3.802-3.873l39.933-2.156
		c2.209-0.119,4.088,1.422,4.197,3.441L177.845,263.05z"/>
	<path id="btn_x5F_3" fill="none" stroke="#000000" stroke-miterlimit="10" d="M247.52,254.401c0.212,2.012-1.398,3.831-3.598,4.063
		l-39.77,4.206c-2.2,0.232-4.156-1.209-4.368-3.222l-1.175-11.107c-0.213-2.012,1.398-3.831,3.598-4.063l39.77-4.206
		c2.2-0.232,4.156,1.211,4.369,3.222L247.52,254.401z"/>
	<path id="btn_x5F_2" fill="none" stroke="#000000" stroke-miterlimit="10" d="M315.22,244.015c0.329,1.996-1.174,3.905-3.356,4.265
		l-39.459,6.504c-2.183,0.359-4.219-0.967-4.547-2.964l-1.817-11.021c-0.329-1.996,1.173-3.905,3.356-4.265l39.459-6.504
		c2.183-0.359,4.219,0.969,4.548,2.964L315.22,244.015z"/>
	<path id="btn_x5F_1" fill="none" stroke="#000000" stroke-miterlimit="10" d="M385.59,231.579c0.329,1.996-1.174,3.905-3.355,4.265
		l-39.459,6.504c-2.183,0.359-4.219-0.967-4.547-2.964l-1.817-11.021c-0.329-1.996,1.173-3.905,3.356-4.265l39.46-6.504
		c2.182-0.359,4.219,0.969,4.548,2.964L385.59,231.579z"/>
	<g id="btn_x5F_6">
		<path fill="none" stroke="#000000" stroke-miterlimit="10" d="M452.799,240.854c1.647-1.097,3.109-0.379,3.248,1.596l2.252,32.134
			c0.139,1.975-1.195,2.863-2.965,1.974l-28.779-14.466c-1.77-0.89-1.868-2.516-0.221-3.612L452.799,240.854z"/>
	</g>
	<g id="btn_x5F_5">
		<path fill="none" stroke="#000000" stroke-miterlimit="10" d="M413.411,239.834c-1.647,1.097-3.109,0.379-3.248-1.596
			l-2.252-32.134c-0.139-1.975,1.195-2.863,2.965-1.974l28.779,14.466c1.77,0.89,1.868,2.516,0.221,3.612L413.411,239.834z"/>
	</g>
	<path id="btn_x5F_10" fill="none" stroke="#000000" stroke-miterlimit="10" d="M473.215,82.727
		c-1.129,0.386-2.358-0.215-2.744-1.344l-4.433-12.941c-0.386-1.129,0.215-2.356,1.344-2.744l4.425-1.517
		c1.13-0.387,2.358,0.214,2.745,1.344l4.433,12.941c0.388,1.13-0.215,2.357-1.344,2.745L473.215,82.727z"/>
	<path id="btn_x5F_9" fill="none" stroke="#000000" stroke-miterlimit="10" d="M494.382,123.686
		c-0.989,0.667-2.333,0.406-2.999-0.584l-7.647-11.342c-0.667-0.99-0.405-2.332,0.584-2.999l3.879-2.616
		c0.989-0.667,2.333-0.406,2.999,0.583l7.647,11.342c0.668,0.99,0.405,2.332-0.584,3L494.382,123.686z"/>
	<path id="btn_x5F_8" fill="none" stroke="#000000" stroke-miterlimit="10" d="M530.626,152.727
		c-0.651,0.998-1.991,1.279-2.989,0.627l-11.453-7.481c-0.998-0.653-1.279-1.992-0.627-2.99l2.56-3.918
		c0.651-0.999,1.991-1.28,2.989-0.627l11.453,7.482c0.999,0.652,1.279,1.991,0.627,2.99L530.626,152.727z"/>
	<path id="btn_x5F_7" fill="none" stroke="#000000" stroke-miterlimit="10" d="M574.86,172.742
		c-0.448,1.104-1.709,1.636-2.813,1.187l-12.674-5.147c-1.105-0.452-1.638-1.711-1.188-2.814l1.762-4.337
		c0.448-1.105,1.709-1.639,2.813-1.188l12.674,5.148c1.105,0.45,1.638,1.711,1.188,2.815L574.86,172.742z"/>
	<polygon id="acc_x5F_2" fill="#202020" points="549.277,52.936 540.313,44.046 531.351,52.936 536.579,52.936 536.579,66.177 
		544.049,66.177 544.049,52.936 	"/>
	<polygon id="acc_x5F_1" fill="#202020" points="596.896,91.881 600.112,79.674 587.933,76.356 590.547,80.885 579.079,87.505 
		582.814,93.974 594.281,87.354 	"/>
	<polygon id="acc_x5F_0" fill="#202020" points="587.932,152.5 600.112,149.182 596.895,136.974 594.28,141.502 582.813,134.881 
		579.079,141.35 590.546,147.97 	"/>
</g>
</svg>
