<?xml version="1.0" encoding="utf-8"?>
<!-- Generator: Adobe Illustrator 13.0.0, SVG Export Plug-In . SVG Version: 6.00 Build 14948)  -->
<!DOCTYPE svg PUBLIC "-//W3C//DTD SVG 1.1//EN" "http://www.w3.org/Graphics/SVG/1.1/DTD/svg11.dtd">
<svg version="1.1" xmlns="http://www.w3.org/2000/svg" xmlns:xlink="http://www.w3.org/1999/xlink" x="0px" y="0px" width="647px"
	 height="359px" viewBox="0 0 647 359" enable-background="new 0 0 647 359" xml:space="preserve">
<g id="ledring">
	<path id="ledring_x5F_31" fill-rule="evenodd" clip-rule="evenodd" fill="#002BBF" stroke="#000000" d="M621.003,272.399
		c0,0.531,0.835,2.592,1.113,3.025c0.33,0.512,0.77,0.719,1.069,0.58c8.997-4.195,15.253-13.493,15.253-24.291
		c0-14.728-11.641-26.667-26-26.667s-26,11.939-26,26.667c0,10.486,5.9,19.559,14.482,23.914c0.371,0.189,1.039-0.102,1.393-0.463
		c0.354-0.362,0.744-2.516,0.836-3.187s-0.318-1.091-0.582-1.235c-6.629-3.625-11.139-10.785-11.139-19.029
		c0-11.901,9.406-21.549,21.01-21.549s21.01,9.647,21.01,21.549c0,8.502-4.799,15.854-11.77,19.359
		C621.364,271.231,621.003,271.729,621.003,272.399z"/>
	<path id="ledring_x5F_30" fill-rule="evenodd" clip-rule="evenodd" fill="#002BBF" stroke="#000000" d="M621.003,200.399
		c0,0.531,0.835,2.592,1.113,3.025c0.33,0.512,0.77,0.719,1.069,0.58c8.997-4.195,15.253-13.493,15.253-24.291
		c0-14.728-11.641-26.667-26-26.667s-26,11.939-26,26.667c0,10.486,5.9,19.559,14.482,23.914c0.371,0.189,1.039-0.102,1.393-0.463
		c0.354-0.362,0.744-2.516,0.836-3.187s-0.318-1.091-0.582-1.235c-6.629-3.625-11.139-10.785-11.139-19.029
		c0-11.901,9.406-21.549,21.01-21.549s21.01,9.647,21.01,21.549c0,8.502-4.799,15.854-11.77,19.359
		C621.364,199.231,621.003,199.729,621.003,200.399z"/>
	<path id="ledring_x5F_29" fill-rule="evenodd" clip-rule="evenodd" fill="#002BBF" stroke="#000000" d="M621.003,128.399
		c0,0.531,0.835,2.592,1.113,3.025c0.33,0.512,0.77,0.719,1.069,0.58c8.997-4.195,15.253-13.493,15.253-24.291
		c0-14.728-11.641-26.667-26-26.667s-26,11.939-26,26.667c0,10.486,5.9,19.559,14.482,23.914c0.371,0.189,1.039-0.102,1.393-0.463
		c0.354-0.362,0.744-2.516,0.836-3.187s-0.318-1.091-0.582-1.235c-6.629-3.625-11.139-10.785-11.139-19.029
		c0-11.901,9.406-21.549,21.01-21.549s21.01,9.647,21.01,21.549c0,8.502-4.799,15.854-11.77,19.359
		C621.364,127.231,621.003,127.729,621.003,128.399z"/>
	<path id="ledring_x5F_28" fill-rule="evenodd" clip-rule="evenodd" fill="#002BBF" stroke="#000000" d="M621.003,56.399
		c0,0.531,0.835,2.592,1.113,3.025c0.33,0.512,0.77,0.719,1.069,0.58c8.997-4.195,15.253-13.493,15.253-24.291
		c0-14.728-11.641-26.667-26-26.667s-26,11.939-26,26.667c0,10.486,5.9,19.559,14.482,23.914c0.371,0.189,1.039-0.102,1.393-0.463
		c0.354-0.362,0.744-2.516,0.836-3.187s-0.318-1.091-0.582-1.235c-6.629-3.625-11.139-10.785-11.139-19.029
		c0-11.901,9.406-21.549,21.01-21.549s21.01,9.647,21.01,21.549c0,8.502-4.799,15.854-11.77,19.359
		C621.364,55.231,621.003,55.729,621.003,56.399z"/>
	<path id="ledring_x5F_27" fill-rule="evenodd" clip-rule="evenodd" fill="#002BBF" stroke="#000000" d="M549.003,272.399
		c0,0.531,0.835,2.592,1.113,3.025c0.33,0.512,0.77,0.719,1.069,0.58c8.997-4.195,15.253-13.493,15.253-24.291
		c0-14.728-11.641-26.667-26-26.667s-26,11.939-26,26.667c0,10.486,5.9,19.559,14.482,23.914c0.371,0.189,1.039-0.102,1.393-0.463
		c0.354-0.362,0.744-2.516,0.836-3.187s-0.318-1.091-0.582-1.235c-6.629-3.625-11.139-10.785-11.139-19.029
		c0-11.901,9.406-21.549,21.01-21.549s21.01,9.647,21.01,21.549c0,8.502-4.799,15.854-11.77,19.359
		C549.364,271.231,549.003,271.729,549.003,272.399z"/>
	<path id="ledring_x5F_26" fill-rule="evenodd" clip-rule="evenodd" fill="#002BBF" stroke="#000000" d="M549.003,200.399
		c0,0.531,0.835,2.592,1.113,3.025c0.33,0.512,0.77,0.719,1.069,0.58c8.997-4.195,15.253-13.493,15.253-24.291
		c0-14.728-11.641-26.667-26-26.667s-26,11.939-26,26.667c0,10.486,5.9,19.559,14.482,23.914c0.371,0.189,1.039-0.102,1.393-0.463
		c0.354-0.362,0.744-2.516,0.836-3.187s-0.318-1.091-0.582-1.235c-6.629-3.625-11.139-10.785-11.139-19.029
		c0-11.901,9.406-21.549,21.01-21.549s21.01,9.647,21.01,21.549c0,8.502-4.799,15.854-11.77,19.359
		C549.364,199.231,549.003,199.729,549.003,200.399z"/>
	<path id="ledring_x5F_25" fill-rule="evenodd" clip-rule="evenodd" fill="#002BBF" stroke="#000000" d="M549.003,128.399
		c0,0.531,0.835,2.592,1.113,3.025c0.33,0.512,0.77,0.719,1.069,0.58c8.997-4.195,15.253-13.493,15.253-24.291
		c0-14.728-11.641-26.667-26-26.667s-26,11.939-26,26.667c0,10.486,5.9,19.559,14.482,23.914c0.371,0.189,1.039-0.102,1.393-0.463
		c0.354-0.362,0.744-2.516,0.836-3.187s-0.318-1.091-0.582-1.235c-6.629-3.625-11.139-10.785-11.139-19.029
		c0-11.901,9.406-21.549,21.01-21.549s21.01,9.647,21.01,21.549c0,8.502-4.799,15.854-11.77,19.359
		C549.364,127.231,549.003,127.729,549.003,128.399z"/>
	<path id="ledring_x5F_24" fill-rule="evenodd" clip-rule="evenodd" fill="#002BBF" stroke="#000000" d="M549.003,56.399
		c0,0.531,0.835,2.592,1.113,3.025c0.33,0.512,0.77,0.719,1.069,0.58c8.997-4.195,15.253-13.493,15.253-24.291
		c0-14.728-11.641-26.667-26-26.667s-26,11.939-26,26.667c0,10.486,5.9,19.559,14.482,23.914c0.371,0.189,1.039-0.102,1.393-0.463
		c0.354-0.362,0.744-2.516,0.836-3.187s-0.318-1.091-0.582-1.235c-6.629-3.625-11.139-10.785-11.139-19.029
		c0-11.901,9.406-21.549,21.01-21.549s21.01,9.647,21.01,21.549c0,8.502-4.799,15.854-11.77,19.359
		C549.364,55.231,549.003,55.729,549.003,56.399z"/>
	<path id="ledring_x5F_23" fill-rule="evenodd" clip-rule="evenodd" fill="#002BBF" stroke="#000000" d="M477.081,272.399
		c0,0.531,0.835,2.592,1.113,3.025c0.33,0.512,0.77,0.719,1.069,0.58c8.997-4.195,15.253-13.493,15.253-24.291
		c0-14.728-11.641-26.667-26-26.667s-26,11.939-26,26.667c0,10.486,5.9,19.559,14.482,23.914c0.371,0.189,1.039-0.102,1.393-0.463
		c0.354-0.362,0.744-2.516,0.836-3.187s-0.318-1.091-0.582-1.235c-6.629-3.625-11.139-10.785-11.139-19.029
		c0-11.901,9.406-21.549,21.01-21.549s21.01,9.647,21.01,21.549c0,8.502-4.799,15.854-11.77,19.359
		C477.442,271.231,477.081,271.729,477.081,272.399z"/>
	<path id="ledring_x5F_22" fill-rule="evenodd" clip-rule="evenodd" fill="#002BBF" stroke="#000000" d="M477.081,200.399
		c0,0.531,0.835,2.592,1.113,3.025c0.33,0.512,0.77,0.719,1.069,0.58c8.997-4.195,15.253-13.493,15.253-24.291
		c0-14.728-11.641-26.667-26-26.667s-26,11.939-26,26.667c0,10.486,5.9,19.559,14.482,23.914c0.371,0.189,1.039-0.102,1.393-0.463
		c0.354-0.362,0.744-2.516,0.836-3.187s-0.318-1.091-0.582-1.235c-6.629-3.625-11.139-10.785-11.139-19.029
		c0-11.901,9.406-21.549,21.01-21.549s21.01,9.647,21.01,21.549c0,8.502-4.799,15.854-11.77,19.359
		C477.442,199.231,477.081,199.729,477.081,200.399z"/>
	<path id="ledring_x5F_21" fill-rule="evenodd" clip-rule="evenodd" fill="#002BBF" stroke="#000000" d="M477.081,128.399
		c0,0.531,0.835,2.592,1.113,3.025c0.33,0.512,0.77,0.719,1.069,0.58c8.997-4.195,15.253-13.493,15.253-24.291
		c0-14.728-11.641-26.667-26-26.667s-26,11.939-26,26.667c0,10.486,5.9,19.559,14.482,23.914c0.371,0.189,1.039-0.102,1.393-0.463
		c0.354-0.362,0.744-2.516,0.836-3.187s-0.318-1.091-0.582-1.235c-6.629-3.625-11.139-10.785-11.139-19.029
		c0-11.901,9.406-21.549,21.01-21.549s21.01,9.647,21.01,21.549c0,8.502-4.799,15.854-11.77,19.359
		C477.442,127.231,477.081,127.729,477.081,128.399z"/>
	<path id="ledring_x5F_20" fill-rule="evenodd" clip-rule="evenodd" fill="#002BBF" stroke="#000000" d="M477.081,56.399
		c0,0.531,0.835,2.592,1.113,3.025c0.33,0.512,0.77,0.719,1.069,0.58c8.997-4.195,15.253-13.493,15.253-24.291
		c0-14.728-11.641-26.667-26-26.667s-26,11.939-26,26.667c0,10.486,5.9,19.559,14.482,23.914c0.371,0.189,1.039-0.102,1.393-0.463
		c0.354-0.362,0.744-2.516,0.836-3.187s-0.318-1.091-0.582-1.235c-6.629-3.625-11.139-10.785-11.139-19.029
		c0-11.901,9.406-21.549,21.01-21.549s21.01,9.647,21.01,21.549c0,8.502-4.799,15.854-11.77,19.359
		C477.442,55.231,477.081,55.729,477.081,56.399z"/>
	<path id="ledring_x5F_19" fill-rule="evenodd" clip-rule="evenodd" fill="#002BBF" stroke="#000000" d="M405.003,272.399
		c0,0.531,0.835,2.592,1.113,3.025c0.33,0.512,0.77,0.719,1.069,0.58c8.997-4.195,15.253-13.493,15.253-24.291
		c0-14.728-11.641-26.667-26-26.667s-26,11.939-26,26.667c0,10.486,5.9,19.559,14.482,23.914c0.371,0.189,1.039-0.102,1.393-0.463
		c0.354-0.362,0.744-2.516,0.836-3.187s-0.318-1.091-0.582-1.235c-6.629-3.625-11.139-10.785-11.139-19.029
		c0-11.901,9.406-21.549,21.01-21.549s21.01,9.647,21.01,21.549c0,8.502-4.799,15.854-11.77,19.359
		C405.364,271.231,405.003,271.729,405.003,272.399z"/>
	<path id="ledring_x5F_18" fill-rule="evenodd" clip-rule="evenodd" fill="#002BBF" stroke="#000000" d="M405.003,200.399
		c0,0.531,0.835,2.592,1.113,3.025c0.33,0.512,0.77,0.719,1.069,0.58c8.997-4.195,15.253-13.493,15.253-24.291
		c0-14.728-11.641-26.667-26-26.667s-26,11.939-26,26.667c0,10.486,5.9,19.559,14.482,23.914c0.371,0.189,1.039-0.102,1.393-0.463
		c0.354-0.362,0.744-2.516,0.836-3.187s-0.318-1.091-0.582-1.235c-6.629-3.625-11.139-10.785-11.139-19.029
		c0-11.901,9.406-21.549,21.01-21.549s21.01,9.647,21.01,21.549c0,8.502-4.799,15.854-11.77,19.359
		C405.364,199.231,405.003,199.729,405.003,200.399z"/>
	<path id="ledring_x5F_17" fill-rule="evenodd" clip-rule="evenodd" fill="#002BBF" stroke="#000000" d="M405.003,128.399
		c0,0.531,0.835,2.592,1.113,3.025c0.33,0.512,0.77,0.719,1.069,0.58c8.997-4.195,15.253-13.493,15.253-24.291
		c0-14.728-11.641-26.667-26-26.667s-26,11.939-26,26.667c0,10.486,5.9,19.559,14.482,23.914c0.371,0.189,1.039-0.102,1.393-0.463
		c0.354-0.362,0.744-2.516,0.836-3.187s-0.318-1.091-0.582-1.235c-6.629-3.625-11.139-10.785-11.139-19.029
		c0-11.901,9.406-21.549,21.01-21.549s21.01,9.647,21.01,21.549c0,8.502-4.799,15.854-11.77,19.359
		C405.364,127.231,405.003,127.729,405.003,128.399z"/>
	<path id="ledring_x5F_16" fill-rule="evenodd" clip-rule="evenodd" fill="#002BBF" stroke="#000000" d="M405.003,56.399
		c0,0.531,0.835,2.592,1.113,3.025c0.33,0.512,0.77,0.719,1.069,0.58c8.997-4.195,15.253-13.493,15.253-24.291
		c0-14.728-11.641-26.667-26-26.667s-26,11.939-26,26.667c0,10.486,5.9,19.559,14.482,23.914c0.371,0.189,1.039-0.102,1.393-0.463
		c0.354-0.362,0.744-2.516,0.836-3.187s-0.318-1.091-0.582-1.235c-6.629-3.625-11.139-10.785-11.139-19.029
		c0-11.901,9.406-21.549,21.01-21.549s21.01,9.647,21.01,21.549c0,8.502-4.799,15.854-11.77,19.359
		C405.364,55.231,405.003,55.729,405.003,56.399z"/>
	<path id="ledring_x5F_15" fill-rule="evenodd" clip-rule="evenodd" fill="#002BBF" stroke="#000000" d="M333.003,272.399
		c0,0.531,0.835,2.592,1.113,3.025c0.33,0.512,0.77,0.719,1.069,0.58c8.997-4.195,15.253-13.493,15.253-24.291
		c0-14.728-11.641-26.667-26-26.667s-26,11.939-26,26.667c0,10.486,5.9,19.559,14.482,23.914c0.371,0.189,1.039-0.102,1.393-0.463
		c0.354-0.362,0.744-2.516,0.836-3.187s-0.318-1.091-0.582-1.235c-6.629-3.625-11.139-10.785-11.139-19.029
		c0-11.901,9.406-21.549,21.01-21.549s21.01,9.647,21.01,21.549c0,8.502-4.799,15.854-11.77,19.359
		C333.364,271.231,333.003,271.729,333.003,272.399z"/>
	<path id="ledring_x5F_14" fill-rule="evenodd" clip-rule="evenodd" fill="#002BBF" stroke="#000000" d="M333.003,200.399
		c0,0.531,0.835,2.592,1.113,3.025c0.33,0.512,0.77,0.719,1.069,0.58c8.997-4.195,15.253-13.493,15.253-24.291
		c0-14.728-11.641-26.667-26-26.667s-26,11.939-26,26.667c0,10.486,5.9,19.559,14.482,23.914c0.371,0.189,1.039-0.102,1.393-0.463
		c0.354-0.362,0.744-2.516,0.836-3.187s-0.318-1.091-0.582-1.235c-6.629-3.625-11.139-10.785-11.139-19.029
		c0-11.901,9.406-21.549,21.01-21.549s21.01,9.647,21.01,21.549c0,8.502-4.799,15.854-11.77,19.359
		C333.364,199.231,333.003,199.729,333.003,200.399z"/>
	<path id="ledring_x5F_13" fill-rule="evenodd" clip-rule="evenodd" fill="#002BBF" stroke="#000000" d="M333.003,128.399
		c0,0.531,0.835,2.592,1.113,3.025c0.33,0.512,0.77,0.719,1.069,0.58c8.997-4.195,15.253-13.493,15.253-24.291
		c0-14.728-11.641-26.667-26-26.667s-26,11.939-26,26.667c0,10.486,5.9,19.559,14.482,23.914c0.371,0.189,1.039-0.102,1.393-0.463
		c0.354-0.362,0.744-2.516,0.836-3.187s-0.318-1.091-0.582-1.235c-6.629-3.625-11.139-10.785-11.139-19.029
		c0-11.901,9.406-21.549,21.01-21.549s21.01,9.647,21.01,21.549c0,8.502-4.799,15.854-11.77,19.359
		C333.364,127.231,333.003,127.729,333.003,128.399z"/>
	<path id="ledring_x5F_12" fill-rule="evenodd" clip-rule="evenodd" fill="#002BBF" stroke="#000000" d="M333.003,56.399
		c0,0.531,0.835,2.592,1.113,3.025c0.33,0.512,0.77,0.719,1.069,0.58c8.997-4.195,15.253-13.493,15.253-24.291
		c0-14.728-11.641-26.667-26-26.667s-26,11.939-26,26.667c0,10.486,5.9,19.559,14.482,23.914c0.371,0.189,1.039-0.102,1.393-0.463
		c0.354-0.362,0.744-2.516,0.836-3.187s-0.318-1.091-0.582-1.235c-6.629-3.625-11.139-10.785-11.139-19.029
		c0-11.901,9.406-21.549,21.01-21.549s21.01,9.647,21.01,21.549c0,8.502-4.799,15.854-11.77,19.359
		C333.364,55.231,333.003,55.729,333.003,56.399z"/>
	<path id="ledring_x5F_11" fill-rule="evenodd" clip-rule="evenodd" fill="#002BBF" stroke="#000000" d="M261.003,272.399
		c0,0.531,0.835,2.592,1.113,3.025c0.33,0.512,0.77,0.719,1.069,0.58c8.997-4.195,15.253-13.493,15.253-24.291
		c0-14.728-11.641-26.667-26-26.667s-26,11.939-26,26.667c0,10.486,5.9,19.559,14.482,23.914c0.371,0.189,1.039-0.102,1.393-0.463
		c0.354-0.362,0.744-2.516,0.836-3.187s-0.318-1.091-0.582-1.235c-6.629-3.625-11.139-10.785-11.139-19.029
		c0-11.901,9.406-21.549,21.01-21.549s21.01,9.647,21.01,21.549c0,8.502-4.799,15.854-11.77,19.359
		C261.364,271.231,261.003,271.729,261.003,272.399z"/>
	<path id="ledring_x5F_10" fill-rule="evenodd" clip-rule="evenodd" fill="#002BBF" stroke="#000000" d="M261.003,200.399
		c0,0.531,0.835,2.592,1.113,3.025c0.33,0.512,0.77,0.719,1.069,0.58c8.997-4.195,15.253-13.493,15.253-24.291
		c0-14.728-11.641-26.667-26-26.667s-26,11.939-26,26.667c0,10.486,5.9,19.559,14.482,23.914c0.371,0.189,1.039-0.102,1.393-0.463
		c0.354-0.362,0.744-2.516,0.836-3.187s-0.318-1.091-0.582-1.235c-6.629-3.625-11.139-10.785-11.139-19.029
		c0-11.901,9.406-21.549,21.01-21.549s21.01,9.647,21.01,21.549c0,8.502-4.799,15.854-11.77,19.359
		C261.364,199.231,261.003,199.729,261.003,200.399z"/>
	<path id="ledring_x5F_9" fill-rule="evenodd" clip-rule="evenodd" fill="#002BBF" stroke="#000000" d="M261.003,128.399
		c0,0.531,0.835,2.592,1.113,3.025c0.33,0.512,0.77,0.719,1.069,0.58c8.997-4.195,15.253-13.493,15.253-24.291
		c0-14.728-11.641-26.667-26-26.667s-26,11.939-26,26.667c0,10.486,5.9,19.559,14.482,23.914c0.371,0.189,1.039-0.102,1.393-0.463
		c0.354-0.362,0.744-2.516,0.836-3.187s-0.318-1.091-0.582-1.235c-6.629-3.625-11.139-10.785-11.139-19.029
		c0-11.901,9.406-21.549,21.01-21.549s21.01,9.647,21.01,21.549c0,8.502-4.799,15.854-11.77,19.359
		C261.364,127.231,261.003,127.729,261.003,128.399z"/>
	<path id="ledring_x5F_8" fill-rule="evenodd" clip-rule="evenodd" fill="#002BBF" stroke="#000000" d="M261.003,56.399
		c0,0.531,0.835,2.592,1.113,3.025c0.33,0.512,0.77,0.719,1.069,0.58c8.997-4.195,15.253-13.493,15.253-24.291
		c0-14.728-11.641-26.667-26-26.667s-26,11.939-26,26.667c0,10.486,5.9,19.559,14.482,23.914c0.371,0.189,1.039-0.102,1.393-0.463
		c0.354-0.362,0.744-2.516,0.836-3.187s-0.318-1.091-0.582-1.235c-6.629-3.625-11.139-10.785-11.139-19.029
		c0-11.901,9.406-21.549,21.01-21.549s21.01,9.647,21.01,21.549c0,8.502-4.799,15.854-11.77,19.359
		C261.364,55.231,261.003,55.729,261.003,56.399z"/>
	<path id="ledring_x5F_7" fill-rule="evenodd" clip-rule="evenodd" fill="#002BBF" stroke="#000000" d="M189.003,272.399
		c0,0.531,0.835,2.592,1.113,3.025c0.33,0.512,0.77,0.719,1.069,0.58c8.997-4.195,15.253-13.493,15.253-24.291
		c0-14.728-11.641-26.667-26-26.667s-26,11.939-26,26.667c0,10.486,5.9,19.559,14.482,23.914c0.371,0.189,1.039-0.102,1.393-0.463
		c0.354-0.362,0.744-2.516,0.836-3.187s-0.318-1.091-0.582-1.235c-6.629-3.625-11.139-10.785-11.139-19.029
		c0-11.901,9.406-21.549,21.01-21.549s21.01,9.647,21.01,21.549c0,8.502-4.799,15.854-11.77,19.359
		C189.364,271.231,189.003,271.729,189.003,272.399z"/>
	<path id="ledring_x5F_6" fill-rule="evenodd" clip-rule="evenodd" fill="#002BBF" stroke="#000000" d="M189.003,200.399
		c0,0.531,0.835,2.592,1.113,3.025c0.33,0.512,0.77,0.719,1.069,0.58c8.997-4.195,15.253-13.493,15.253-24.291
		c0-14.728-11.641-26.667-26-26.667s-26,11.939-26,26.667c0,10.486,5.9,19.559,14.482,23.914c0.371,0.189,1.039-0.102,1.393-0.463
		c0.354-0.362,0.744-2.516,0.836-3.187s-0.318-1.091-0.582-1.235c-6.629-3.625-11.139-10.785-11.139-19.029
		c0-11.901,9.406-21.549,21.01-21.549s21.01,9.647,21.01,21.549c0,8.502-4.799,15.854-11.77,19.359
		C189.364,199.231,189.003,199.729,189.003,200.399z"/>
	<path id="ledring_x5F_5" fill-rule="evenodd" clip-rule="evenodd" fill="#002BBF" stroke="#000000" d="M189.003,128.399
		c0,0.531,0.835,2.592,1.113,3.025c0.33,0.512,0.77,0.719,1.069,0.58c8.997-4.195,15.253-13.493,15.253-24.291
		c0-14.728-11.641-26.667-26-26.667s-26,11.939-26,26.667c0,10.486,5.9,19.559,14.482,23.914c0.371,0.189,1.039-0.102,1.393-0.463
		c0.354-0.362,0.744-2.516,0.836-3.187s-0.318-1.091-0.582-1.235c-6.629-3.625-11.139-10.785-11.139-19.029
		c0-11.901,9.406-21.549,21.01-21.549s21.01,9.647,21.01,21.549c0,8.502-4.799,15.854-11.77,19.359
		C189.364,127.231,189.003,127.729,189.003,128.399z"/>
	<path id="ledring_x5F_4" fill-rule="evenodd" clip-rule="evenodd" fill="#002BBF" stroke="#000000" d="M189.003,56.399
		c0,0.531,0.835,2.592,1.113,3.025c0.33,0.512,0.77,0.719,1.069,0.58c8.997-4.195,15.253-13.493,15.253-24.291
		c0-14.728-11.641-26.667-26-26.667s-26,11.939-26,26.667c0,10.486,5.9,19.559,14.482,23.914c0.371,0.189,1.039-0.102,1.393-0.463
		c0.354-0.362,0.744-2.516,0.836-3.187s-0.318-1.091-0.582-1.235c-6.629-3.625-11.139-10.785-11.139-19.029
		c0-11.901,9.406-21.549,21.01-21.549s21.01,9.647,21.01,21.549c0,8.502-4.799,15.854-11.77,19.359
		C189.364,55.231,189.003,55.729,189.003,56.399z"/>
	<path id="ledring_x5F_3" fill-rule="evenodd" clip-rule="evenodd" fill="#002BBF" stroke="#000000" d="M117.003,272.399
		c0,0.531,0.835,2.592,1.113,3.025c0.33,0.512,0.77,0.719,1.069,0.58c8.997-4.195,15.253-13.493,15.253-24.291
		c0-14.728-11.641-26.667-26-26.667s-26,11.939-26,26.667c0,10.486,5.9,19.559,14.482,23.914c0.371,0.189,1.039-0.102,1.393-0.463
		c0.354-0.362,0.744-2.516,0.836-3.187s-0.318-1.091-0.582-1.235c-6.629-3.625-11.139-10.785-11.139-19.029
		c0-11.901,9.406-21.549,21.01-21.549s21.01,9.647,21.01,21.549c0,8.502-4.799,15.854-11.77,19.359
		C117.364,271.231,117.003,271.729,117.003,272.399z"/>
	<path id="ledring_x5F_2" fill-rule="evenodd" clip-rule="evenodd" fill="#002BBF" stroke="#000000" d="M117.003,200.399
		c0,0.531,0.835,2.592,1.113,3.025c0.33,0.512,0.77,0.719,1.069,0.58c8.997-4.195,15.253-13.493,15.253-24.291
		c0-14.728-11.641-26.667-26-26.667s-26,11.939-26,26.667c0,10.486,5.9,19.559,14.482,23.914c0.371,0.189,1.039-0.102,1.393-0.463
		c0.354-0.362,0.744-2.516,0.836-3.187s-0.318-1.091-0.582-1.235c-6.629-3.625-11.139-10.785-11.139-19.029
		c0-11.901,9.406-21.549,21.01-21.549s21.01,9.647,21.01,21.549c0,8.502-4.799,15.854-11.77,19.359
		C117.364,199.231,117.003,199.729,117.003,200.399z"/>
	<path id="ledring_x5F_1" fill-rule="evenodd" clip-rule="evenodd" fill="#002BBF" stroke="#000000" d="M117.003,128.399
		c0,0.531,0.835,2.592,1.113,3.025c0.33,0.512,0.77,0.719,1.069,0.58c8.997-4.195,15.253-13.493,15.253-24.291
		c0-14.728-11.641-26.667-26-26.667s-26,11.939-26,26.667c0,10.486,5.9,19.559,14.482,23.914c0.371,0.189,1.039-0.102,1.393-0.463
		c0.354-0.362,0.744-2.516,0.836-3.187s-0.318-1.091-0.582-1.235c-6.629-3.625-11.139-10.785-11.139-19.029
		c0-11.901,9.406-21.549,21.01-21.549s21.01,9.647,21.01,21.549c0,8.502-4.799,15.854-11.77,19.359
		C117.364,127.231,117.003,127.729,117.003,128.399z"/>
	<path id="ledring_x5F_0" fill-rule="evenodd" clip-rule="evenodd" fill="#002BBF" stroke="#000000" d="M117.003,56.399
		c0,0.531,0.835,2.592,1.113,3.025c0.33,0.512,0.77,0.719,1.069,0.58c8.997-4.195,15.253-13.493,15.253-24.291
		c0-14.728-11.641-26.667-26-26.667s-26,11.939-26,26.667c0,10.486,5.9,19.559,14.482,23.914c0.371,0.189,1.039-0.102,1.393-0.463
		c0.354-0.362,0.744-2.516,0.836-3.187s-0.318-1.091-0.582-1.235c-6.629-3.625-11.139-10.785-11.139-19.029
		c0-11.901,9.406-21.549,21.01-21.549s21.01,9.647,21.01,21.549c0,8.502-4.799,15.854-11.77,19.359
		C117.364,55.231,117.003,55.729,117.003,56.399z"/>
</g>
<g id="btn_x2B_led">
	
		<circle id="btn_x5F_31" fill-rule="evenodd" clip-rule="evenodd" fill="#002BBF" stroke="#000000" cx="612.438" cy="281.713" r="7.5"/>
	
		<circle id="btn_x5F_30" fill-rule="evenodd" clip-rule="evenodd" fill="#002BBF" stroke="#000000" cx="612.438" cy="211.713" r="7.5"/>
	
		<circle id="btn_x5F_29" fill-rule="evenodd" clip-rule="evenodd" fill="#002BBF" stroke="#000000" cx="612.438" cy="139.713" r="7.5"/>
	
		<circle id="btn_x5F_28" fill-rule="evenodd" clip-rule="evenodd" fill="#002BBF" stroke="#000000" cx="612.438" cy="67.713" r="7.5"/>
	
		<circle id="btn_x5F_27" fill-rule="evenodd" clip-rule="evenodd" fill="#002BBF" stroke="#000000" cx="540.438" cy="283.713" r="7.5"/>
	
		<circle id="btn_x5F_26" fill-rule="evenodd" clip-rule="evenodd" fill="#002BBF" stroke="#000000" cx="540.438" cy="211.713" r="7.5"/>
	
		<circle id="btn_x5F_25" fill-rule="evenodd" clip-rule="evenodd" fill="#002BBF" stroke="#000000" cx="540.438" cy="139.713" r="7.5"/>
	
		<circle id="btn_x5F_24" fill-rule="evenodd" clip-rule="evenodd" fill="#002BBF" stroke="#000000" cx="540.438" cy="67.713" r="7.5"/>
	
		<circle id="btn_x5F_23" fill-rule="evenodd" clip-rule="evenodd" fill="#002BBF" stroke="#000000" cx="468.517" cy="283.713" r="7.5"/>
	
		<circle id="btn_x5F_22" fill-rule="evenodd" clip-rule="evenodd" fill="#002BBF" stroke="#000000" cx="468.517" cy="211.713" r="7.5"/>
	
		<circle id="btn_x5F_21" fill-rule="evenodd" clip-rule="evenodd" fill="#002BBF" stroke="#000000" cx="468.517" cy="139.713" r="7.5"/>
	
		<circle id="btn_x5F_20" fill-rule="evenodd" clip-rule="evenodd" fill="#002BBF" stroke="#000000" cx="468.517" cy="67.713" r="7.5"/>
	
		<circle id="btn_x5F_19" fill-rule="evenodd" clip-rule="evenodd" fill="#002BBF" stroke="#000000" cx="396.438" cy="283.713" r="7.5"/>
	
		<circle id="btn_x5F_18" fill-rule="evenodd" clip-rule="evenodd" fill="#002BBF" stroke="#000000" cx="396.438" cy="211.713" r="7.5"/>
	
		<circle id="btn_x5F_17" fill-rule="evenodd" clip-rule="evenodd" fill="#002BBF" stroke="#000000" cx="396.438" cy="139.713" r="7.5"/>
	
		<circle id="btn_x5F_16" fill-rule="evenodd" clip-rule="evenodd" fill="#002BBF" stroke="#000000" cx="396.438" cy="67.713" r="7.5"/>
	
		<circle id="btn_x5F_15" fill-rule="evenodd" clip-rule="evenodd" fill="#002BBF" stroke="#000000" cx="324.438" cy="283.713" r="7.5"/>
	
		<circle id="btn_x5F_14" fill-rule="evenodd" clip-rule="evenodd" fill="#002BBF" stroke="#000000" cx="324.438" cy="211.713" r="7.5"/>
	
		<circle id="btn_x5F_13" fill-rule="evenodd" clip-rule="evenodd" fill="#002BBF" stroke="#000000" cx="324.438" cy="139.713" r="7.5"/>
	
		<circle id="btn_x5F_12" fill-rule="evenodd" clip-rule="evenodd" fill="#002BBF" stroke="#000000" cx="324.438" cy="67.713" r="7.5"/>
	
		<circle id="btn_x5F_11" fill-rule="evenodd" clip-rule="evenodd" fill="#002BBF" stroke="#000000" cx="252.438" cy="283.713" r="7.5"/>
	
		<circle id="btn_x5F_10" fill-rule="evenodd" clip-rule="evenodd" fill="#002BBF" stroke="#000000" cx="252.438" cy="211.713" r="7.5"/>
	
		<circle id="btn_x5F_9" fill-rule="evenodd" clip-rule="evenodd" fill="#002BBF" stroke="#000000" cx="252.438" cy="139.713" r="7.5"/>
	
		<circle id="btn_x5F_8" fill-rule="evenodd" clip-rule="evenodd" fill="#002BBF" stroke="#000000" cx="252.438" cy="67.713" r="7.5"/>
	
		<circle id="btn_x5F_7" fill-rule="evenodd" clip-rule="evenodd" fill="#002BBF" stroke="#000000" cx="180.438" cy="283.713" r="7.5"/>
	
		<circle id="btn_x5F_6" fill-rule="evenodd" clip-rule="evenodd" fill="#002BBF" stroke="#000000" cx="180.438" cy="211.713" r="7.5"/>
	
		<circle id="btn_x5F_5" fill-rule="evenodd" clip-rule="evenodd" fill="#002BBF" stroke="#000000" cx="180.438" cy="139.713" r="7.5"/>
	
		<circle id="btn_x5F_4" fill-rule="evenodd" clip-rule="evenodd" fill="#002BBF" stroke="#000000" cx="180.438" cy="67.713" r="7.5"/>
	
		<circle id="btn_x5F_3" fill-rule="evenodd" clip-rule="evenodd" fill="#002BBF" stroke="#000000" cx="108.438" cy="283.713" r="7.5"/>
	
		<circle id="btn_x5F_2" fill-rule="evenodd" clip-rule="evenodd" fill="#002BBF" stroke="#000000" cx="108.438" cy="211.713" r="7.5"/>
	
		<circle id="btn_x5F_1" fill-rule="evenodd" clip-rule="evenodd" fill="#002BBF" stroke="#000000" cx="108.438" cy="139.714" r="7.5"/>
	
		<circle id="btn_x5F_0" fill-rule="evenodd" clip-rule="evenodd" fill="#002BBF" stroke="#000000" cx="108.438" cy="67.713" r="7.5"/>
</g>
<g id="encs">
	
		<ellipse id="enc_x5F_31" fill-rule="evenodd" clip-rule="evenodd" fill="#002BBF" stroke="#000000" cx="612.438" cy="251.713" rx="12.103" ry="12.413"/>
	
		<ellipse id="enc_x5F_30" fill-rule="evenodd" clip-rule="evenodd" fill="#002BBF" stroke="#000000" cx="612.438" cy="179.713" rx="12.103" ry="12.413"/>
	
		<ellipse id="enc_x5F_29" fill-rule="evenodd" clip-rule="evenodd" fill="#002BBF" stroke="#000000" cx="612.438" cy="107.713" rx="12.103" ry="12.413"/>
	
		<ellipse id="enc_x5F_28" fill-rule="evenodd" clip-rule="evenodd" fill="#002BBF" stroke="#000000" cx="612.438" cy="35.713" rx="12.103" ry="12.413"/>
	
		<ellipse id="enc_x5F_27" fill-rule="evenodd" clip-rule="evenodd" fill="#002BBF" stroke="#000000" cx="540.438" cy="251.713" rx="12.103" ry="12.413"/>
	
		<ellipse id="enc_x5F_26" fill-rule="evenodd" clip-rule="evenodd" fill="#002BBF" stroke="#000000" cx="540.438" cy="179.713" rx="12.103" ry="12.413"/>
	
		<ellipse id="enc_x5F_25" fill-rule="evenodd" clip-rule="evenodd" fill="#002BBF" stroke="#000000" cx="540.438" cy="107.713" rx="12.103" ry="12.413"/>
	
		<ellipse id="enc_x5F_24" fill-rule="evenodd" clip-rule="evenodd" fill="#002BBF" stroke="#000000" cx="540.438" cy="35.713" rx="12.103" ry="12.413"/>
	
		<ellipse id="enc_x5F_23" fill-rule="evenodd" clip-rule="evenodd" fill="#002BBF" stroke="#000000" cx="468.517" cy="251.713" rx="12.103" ry="12.413"/>
	
		<ellipse id="enc_x5F_22" fill-rule="evenodd" clip-rule="evenodd" fill="#002BBF" stroke="#000000" cx="468.517" cy="179.713" rx="12.103" ry="12.413"/>
	
		<ellipse id="enc_x5F_21" fill-rule="evenodd" clip-rule="evenodd" fill="#002BBF" stroke="#000000" cx="468.517" cy="107.713" rx="12.103" ry="12.413"/>
	
		<ellipse id="enc_x5F_20" fill-rule="evenodd" clip-rule="evenodd" fill="#002BBF" stroke="#000000" cx="468.517" cy="35.713" rx="12.103" ry="12.413"/>
	
		<ellipse id="enc_x5F_19" fill-rule="evenodd" clip-rule="evenodd" fill="#002BBF" stroke="#000000" cx="396.438" cy="251.713" rx="12.103" ry="12.413"/>
	
		<ellipse id="enc_x5F_18" fill-rule="evenodd" clip-rule="evenodd" fill="#002BBF" stroke="#000000" cx="396.438" cy="179.713" rx="12.103" ry="12.413"/>
	
		<ellipse id="enc_x5F_17" fill-rule="evenodd" clip-rule="evenodd" fill="#002BBF" stroke="#000000" cx="396.438" cy="107.713" rx="12.103" ry="12.413"/>
	
		<ellipse id="enc_x5F_16" fill-rule="evenodd" clip-rule="evenodd" fill="#002BBF" stroke="#000000" cx="396.438" cy="35.713" rx="12.103" ry="12.413"/>
	
		<ellipse id="enc_x5F_15" fill-rule="evenodd" clip-rule="evenodd" fill="#002BBF" stroke="#000000" cx="324.438" cy="251.713" rx="12.103" ry="12.413"/>
	
		<ellipse id="enc_x5F_14" fill-rule="evenodd" clip-rule="evenodd" fill="#002BBF" stroke="#000000" cx="324.438" cy="179.713" rx="12.103" ry="12.413"/>
	
		<ellipse id="enc_x5F_13" fill-rule="evenodd" clip-rule="evenodd" fill="#002BBF" stroke="#000000" cx="324.438" cy="107.713" rx="12.103" ry="12.413"/>
	
		<ellipse id="enc_x5F_12" fill-rule="evenodd" clip-rule="evenodd" fill="#002BBF" stroke="#000000" cx="324.438" cy="35.713" rx="12.103" ry="12.413"/>
	
		<ellipse id="enc_x5F_11" fill-rule="evenodd" clip-rule="evenodd" fill="#002BBF" stroke="#000000" cx="252.438" cy="251.713" rx="12.102" ry="12.413"/>
	
		<ellipse id="enc_x5F_10" fill-rule="evenodd" clip-rule="evenodd" fill="#002BBF" stroke="#000000" cx="252.438" cy="179.713" rx="12.102" ry="12.413"/>
	
		<ellipse id="enc_x5F_9" fill-rule="evenodd" clip-rule="evenodd" fill="#002BBF" stroke="#000000" cx="252.438" cy="107.713" rx="12.102" ry="12.413"/>
	
		<ellipse id="enc_x5F_8" fill-rule="evenodd" clip-rule="evenodd" fill="#002BBF" stroke="#000000" cx="252.438" cy="35.713" rx="12.102" ry="12.413"/>
	
		<ellipse id="enc_x5F_7" fill-rule="evenodd" clip-rule="evenodd" fill="#002BBF" stroke="#000000" cx="180.438" cy="251.713" rx="12.102" ry="12.413"/>
	
		<ellipse id="enc_x5F_6" fill-rule="evenodd" clip-rule="evenodd" fill="#002BBF" stroke="#000000" cx="180.438" cy="179.713" rx="12.102" ry="12.413"/>
	
		<ellipse id="enc_x5F_5" fill-rule="evenodd" clip-rule="evenodd" fill="#002BBF" stroke="#000000" cx="180.438" cy="107.713" rx="12.102" ry="12.413"/>
	
		<ellipse id="enc_x5F_4" fill-rule="evenodd" clip-rule="evenodd" fill="#002BBF" stroke="#000000" cx="180.438" cy="35.713" rx="12.102" ry="12.413"/>
	
		<ellipse id="enc_x5F_3" fill-rule="evenodd" clip-rule="evenodd" fill="#002BBF" stroke="#000000" cx="108.438" cy="251.713" rx="12.102" ry="12.413"/>
	
		<ellipse id="enc_x5F_2" fill-rule="evenodd" clip-rule="evenodd" fill="#002BBF" stroke="#000000" cx="108.438" cy="179.713" rx="12.102" ry="12.413"/>
	
		<ellipse id="enc_x5F_1" fill-rule="evenodd" clip-rule="evenodd" fill="#002BBF" stroke="#000000" cx="108.438" cy="107.713" rx="12.102" ry="12.413"/>
	
		<ellipse id="enc_x5F_0" fill-rule="evenodd" clip-rule="evenodd" fill="#002BBF" stroke="#000000" cx="108.438" cy="35.713" rx="12.102" ry="12.413"/>
</g>
<g id="btns">
	<path id="btn_x5F_37" fill-rule="evenodd" clip-rule="evenodd" fill="#002BBF" stroke="#000000" d="M94.756,302h27.365
		c4.316,0,7.817,3.474,7.817,7.76v27.48c0,4.286-3.501,7.759-7.817,7.759H94.756c-4.317,0-7.817-3.473-7.817-7.759v-27.48
		C86.938,305.474,90.438,302,94.756,302z"/>
	<path id="btn_x5F_38" fill-rule="evenodd" clip-rule="evenodd" fill="#002BBF" stroke="#000000" d="M166.756,302h27.365
		c4.316,0,7.817,3.474,7.817,7.76v27.48c0,4.286-3.501,7.759-7.817,7.759h-27.365c-4.317,0-7.817-3.473-7.817-7.759v-27.48
		C158.938,305.474,162.438,302,166.756,302z"/>
	<path id="btn_x5F_39" fill-rule="evenodd" clip-rule="evenodd" fill="#002BBF" stroke="#000000" d="M238.756,302h27.365
		c4.316,0,7.817,3.474,7.817,7.76v27.48c0,4.286-3.501,7.759-7.817,7.759h-27.365c-4.317,0-7.817-3.473-7.817-7.759v-27.48
		C230.938,305.474,234.438,302,238.756,302z"/>
	<path id="btn_x5F_40" fill-rule="evenodd" clip-rule="evenodd" fill="#002BBF" stroke="#000000" d="M310.756,302h27.365
		c4.316,0,7.817,3.474,7.817,7.76v27.48c0,4.286-3.501,7.759-7.817,7.759h-27.365c-4.317,0-7.817-3.473-7.817-7.759v-27.48
		C302.938,305.474,306.438,302,310.756,302z"/>
	<path id="btn_x5F_41" fill-rule="evenodd" clip-rule="evenodd" fill="#002BBF" stroke="#000000" d="M382.756,302h27.365
		c4.316,0,7.817,3.474,7.817,7.76v27.48c0,4.286-3.501,7.759-7.817,7.759h-27.365c-4.317,0-7.817-3.473-7.817-7.759v-27.48
		C374.938,305.474,378.438,302,382.756,302z"/>
	<path id="btn_x5F_42" fill-rule="evenodd" clip-rule="evenodd" fill="#002BBF" stroke="#000000" d="M453.817,302h27.365
		c4.316,0,7.817,3.474,7.817,7.76v27.48c0,4.286-3.501,7.759-7.817,7.759h-27.365c-4.317,0-7.817-3.473-7.817-7.759v-27.48
		C446,305.474,449.5,302,453.817,302z"/>
	<path id="btn_x5F_43" fill-rule="evenodd" clip-rule="evenodd" fill="#002BBF" stroke="#000000" d="M526.756,302h27.365
		c4.316,0,7.817,3.474,7.817,7.76v27.48c0,4.286-3.501,7.759-7.817,7.759h-27.365c-4.317,0-7.817-3.473-7.817-7.759v-27.48
		C518.938,305.474,522.438,302,526.756,302z"/>
	<path id="btn_x5F_44" fill-rule="evenodd" clip-rule="evenodd" fill="#002BBF" stroke="#000000" d="M598.756,302h27.365
		c4.316,0,7.817,3.474,7.817,7.76v27.48c0,4.286-3.501,7.759-7.817,7.759h-27.365c-4.317,0-7.817-3.473-7.817-7.759v-27.48
		C590.938,305.474,594.438,302,598.756,302z"/>
	<path id="btn_x5F_36" fill-rule="evenodd" clip-rule="evenodd" fill="#002BBF" stroke="#000000" d="M22.217,302h27.365
		c4.316,0,7.817,3.474,7.817,7.76v27.48c0,4.286-3.501,7.759-7.817,7.759H22.217c-4.317,0-7.817-3.473-7.817-7.759v-27.48
		C14.4,305.474,17.9,302,22.217,302z"/>
	<path id="btn_x5F_35" fill-rule="evenodd" clip-rule="evenodd" fill="#002BBF" stroke="#000000" d="M22.217,230h27.365
		c4.316,0,7.817,3.474,7.817,7.76v27.48c0,4.286-3.501,7.759-7.817,7.759H22.217c-4.317,0-7.817-3.473-7.817-7.759v-27.48
		C14.4,233.474,17.9,230,22.217,230z"/>
	<path id="btn_x5F_34" fill-rule="evenodd" clip-rule="evenodd" fill="#002BBF" stroke="#000000" d="M22.217,158h27.365
		c4.316,0,7.817,3.474,7.817,7.76v27.48c0,4.286-3.501,7.759-7.817,7.759H22.217c-4.317,0-7.817-3.473-7.817-7.759v-27.48
		C14.4,161.474,17.9,158,22.217,158z"/>
	<path id="btn_x5F_33" fill-rule="evenodd" clip-rule="evenodd" fill="#002BBF" stroke="#000000" d="M22.217,86h27.365
		c4.316,0,7.817,3.474,7.817,7.76v27.48c0,4.286-3.501,7.759-7.817,7.759H22.217c-4.317,0-7.817-3.473-7.817-7.759V93.76
		C14.4,89.474,17.9,86,22.217,86z"/>
	<path id="btn_x5F_32" fill-rule="evenodd" clip-rule="evenodd" fill="#002BBF" stroke="#000000" d="M22.217,14h27.365
		c4.316,0,7.817,3.474,7.817,7.76v27.48c0,4.286-3.501,7.759-7.817,7.759H22.217C17.9,57,14.4,53.527,14.4,49.241V21.76
		C14.4,17.474,17.9,14,22.217,14z"/>
</g>
</svg>
