<?xml version="1.0" encoding="utf-8"?>
<!-- Generator: Adobe Illustrator 15.1.0, SVG Export Plug-In . SVG Version: 6.00 Build 0)  -->
<!DOCTYPE svg PUBLIC "-//W3C//DTD SVG 1.1//EN" "http://www.w3.org/Graphics/SVG/1.1/DTD/svg11.dtd">
<svg version="1.1" xmlns="http://www.w3.org/2000/svg" xmlns:xlink="http://www.w3.org/1999/xlink" x="0px" y="0px"
	 width="791.999px" height="612px" viewBox="0 0 791.999 612" enable-background="new 0 0 791.999 612" xml:space="preserve">
<g id="Layer_3">
	<path fill="#878787" d="M64,533.377c0,4.211-3.224,7.623-7.2,7.623H45.2c-3.977,0-7.2-3.412-7.2-7.623V132.622
		c0-4.209,3.224-7.622,7.2-7.622h11.6c3.977,0,7.2,3.413,7.2,7.622V533.377z"/>
	<path fill="#878787" d="M762,533.377c0,4.211-3.224,7.623-7.2,7.623h-11.6c-3.977,0-7.2-3.412-7.2-7.623V132.622
		c0-4.209,3.224-7.622,7.2-7.622h11.6c3.977,0,7.2,3.413,7.2,7.622V533.377z"/>
	<linearGradient id="SVGID_1_" gradientUnits="userSpaceOnUse" x1="578.4414" y1="637.7412" x2="226.5576" y2="28.2606">
		<stop  offset="0" style="stop-color:#F0F0F0"/>
		<stop  offset="1" style="stop-color:#FFFFFF"/>
	</linearGradient>
	<path fill="url(#SVGID_1_)" stroke="#000000" stroke-width="2" stroke-miterlimit="10" d="M753,532.407
		c0,4.168-3.087,7.546-6.896,7.546H58.895c-3.808,0-6.895-3.378-6.895-7.546V133.593c0-4.167,3.087-7.545,6.895-7.545h687.209
		c3.809,0,6.896,3.378,6.896,7.545V532.407z"/>
</g>
<g id="Layer_2">
	<path d="M406.269,247.209c0.783,0,2.184-0.425,2.184-2.232h2.1l-0.25,2.232H406.269z"/>
	<g>
		<linearGradient id="SVGID_2_" gradientUnits="userSpaceOnUse" x1="365.2827" y1="191.8843" x2="428.8184" y2="191.8843">
			<stop  offset="0" style="stop-color:#787878"/>
			<stop  offset="1" style="stop-color:#ABABAB"/>
		</linearGradient>
		<path fill="url(#SVGID_2_)" stroke="#000000" stroke-width="2" d="M385.084,219.038c1.56-2.216,1.127-4.891-1.053-6.502
			c-8.186-5.861-11.345-15.417-8.266-25c3.08-9.582,11.216-15.511,21.285-15.511c6.045-0.111,11.652,2.151,15.928,6.425
			c4.276,4.273,6.539,9.878,6.429,15.921c0,7.349-3.36,13.885-9.337,18.165c-2.211,1.583-2.655,4.267-1.071,6.478
			c1.585,2.21,4.269,2.653,6.48,1.07c11.586-8.297,16.058-21.824,11.698-35.387c-4.358-13.563-15.875-21.956-30.127-21.956
			s-25.769,8.393-30.128,21.956c-4.358,13.562,0.113,27.09,11.699,35.387C380.822,221.658,383.493,221.227,385.084,219.038z"/>
		<linearGradient id="SVGID_3_" gradientUnits="userSpaceOnUse" x1="293.2827" y1="191.8843" x2="356.8184" y2="191.8843">
			<stop  offset="0" style="stop-color:#787878"/>
			<stop  offset="1" style="stop-color:#ABABAB"/>
		</linearGradient>
		<path fill="url(#SVGID_3_)" stroke="#000000" stroke-width="2" d="M313.084,219.038c1.56-2.216,1.127-4.891-1.053-6.502
			c-8.186-5.861-11.345-15.417-8.266-25c3.08-9.582,11.216-15.511,21.285-15.511c6.045-0.111,11.652,2.151,15.928,6.425
			c4.276,4.273,6.539,9.878,6.429,15.921c0,7.349-3.36,13.885-9.337,18.165c-2.211,1.583-2.655,4.267-1.071,6.478
			c1.585,2.21,4.269,2.653,6.48,1.07c11.586-8.297,16.058-21.824,11.698-35.387c-4.358-13.563-15.875-21.956-30.127-21.956
			s-25.769,8.393-30.128,21.956c-4.358,13.562,0.113,27.09,11.699,35.387C308.822,221.658,311.493,221.227,313.084,219.038z"/>
		<linearGradient id="SVGID_4_" gradientUnits="userSpaceOnUse" x1="221.2827" y1="191.8843" x2="284.8184" y2="191.8843">
			<stop  offset="0" style="stop-color:#787878"/>
			<stop  offset="1" style="stop-color:#ABABAB"/>
		</linearGradient>
		<path fill="url(#SVGID_4_)" stroke="#000000" stroke-width="2" d="M241.083,219.038c1.561-2.216,1.128-4.891-1.052-6.502
			c-8.186-5.861-11.345-15.417-8.266-25c3.08-9.582,11.216-15.511,21.285-15.511c6.045-0.111,11.652,2.151,15.928,6.425
			c4.276,4.273,6.539,9.878,6.429,15.921c0,7.349-3.36,13.885-9.337,18.165c-2.211,1.583-2.655,4.267-1.071,6.478
			c1.585,2.21,4.269,2.653,6.48,1.07c11.586-8.297,16.058-21.824,11.698-35.387c-4.358-13.563-15.875-21.956-30.127-21.956
			s-25.769,8.393-30.128,21.956c-4.358,13.562,0.113,27.09,11.699,35.387C236.822,221.658,239.493,221.227,241.083,219.038z"/>
		<linearGradient id="SVGID_5_" gradientUnits="userSpaceOnUse" x1="149.2827" y1="191.8843" x2="212.8184" y2="191.8843">
			<stop  offset="0" style="stop-color:#787878"/>
			<stop  offset="1" style="stop-color:#ABABAB"/>
		</linearGradient>
		<path fill="url(#SVGID_5_)" stroke="#000000" stroke-width="2" d="M169.083,219.038c1.561-2.216,1.128-4.891-1.052-6.502
			c-8.186-5.861-11.345-15.417-8.266-25c3.08-9.582,11.216-15.511,21.285-15.511c6.045-0.111,11.652,2.151,15.928,6.425
			c4.276,4.273,6.539,9.878,6.429,15.921c0,7.349-3.36,13.885-9.337,18.165c-2.211,1.583-2.655,4.267-1.071,6.478
			c1.585,2.21,4.269,2.653,6.48,1.07c11.586-8.297,16.058-21.824,11.698-35.387c-4.358-13.563-15.875-21.956-30.127-21.956
			s-25.769,8.393-30.128,21.956c-4.358,13.562,0.113,27.09,11.699,35.387C164.822,221.658,167.493,221.227,169.083,219.038z"/>
		<linearGradient id="SVGID_6_" gradientUnits="userSpaceOnUse" x1="293.2827" y1="263.8521" x2="356.8184" y2="263.8521">
			<stop  offset="0" style="stop-color:#787878"/>
			<stop  offset="1" style="stop-color:#ABABAB"/>
		</linearGradient>
		<path fill="url(#SVGID_6_)" stroke="#000000" stroke-width="2" d="M313.084,291.006c1.56-2.217,1.127-4.891-1.053-6.502
			c-8.186-5.861-11.345-15.418-8.266-25c3.08-9.582,11.216-15.512,21.285-15.512c6.045-0.11,11.652,2.151,15.928,6.425
			c4.276,4.273,6.539,9.878,6.429,15.921c0,7.35-3.36,13.886-9.337,18.166c-2.211,1.584-2.655,4.266-1.071,6.477
			c1.585,2.211,4.269,2.654,6.48,1.07c11.586-8.297,16.058-21.823,11.698-35.387c-4.358-13.562-15.875-21.955-30.127-21.955
			s-25.769,8.393-30.128,21.955c-4.358,13.563,0.113,27.09,11.699,35.387C308.822,293.626,311.493,293.193,313.084,291.006z"/>
		<linearGradient id="SVGID_7_" gradientUnits="userSpaceOnUse" x1="364.7827" y1="263.8521" x2="428.3184" y2="263.8521">
			<stop  offset="0" style="stop-color:#787878"/>
			<stop  offset="1" style="stop-color:#ABABAB"/>
		</linearGradient>
		<path fill="url(#SVGID_7_)" stroke="#000000" stroke-width="2" d="M384.584,291.006c1.56-2.217,1.127-4.891-1.053-6.502
			c-8.186-5.861-11.345-15.418-8.266-25c3.08-9.582,11.216-15.512,21.285-15.512c6.045-0.11,11.652,2.151,15.928,6.425
			c4.276,4.273,6.539,9.878,6.429,15.921c0,7.35-3.36,13.886-9.337,18.166c-2.211,1.584-2.655,4.266-1.071,6.477
			c1.585,2.211,4.269,2.654,6.48,1.07c11.586-8.297,16.058-21.823,11.698-35.387c-4.358-13.562-15.875-21.955-30.127-21.955
			s-25.769,8.393-30.128,21.955c-4.358,13.563,0.113,27.09,11.699,35.387C380.322,293.626,382.993,293.193,384.584,291.006z"/>
		<linearGradient id="SVGID_8_" gradientUnits="userSpaceOnUse" x1="221.2827" y1="263.8521" x2="284.8184" y2="263.8521">
			<stop  offset="0" style="stop-color:#787878"/>
			<stop  offset="1" style="stop-color:#ABABAB"/>
		</linearGradient>
		<path fill="url(#SVGID_8_)" stroke="#000000" stroke-width="2" d="M241.083,291.006c1.561-2.217,1.128-4.891-1.052-6.502
			c-8.186-5.861-11.345-15.418-8.266-25c3.08-9.582,11.216-15.512,21.285-15.512c6.045-0.11,11.652,2.151,15.928,6.425
			c4.276,4.273,6.539,9.878,6.429,15.921c0,7.35-3.36,13.886-9.337,18.166c-2.211,1.584-2.655,4.266-1.071,6.477
			c1.585,2.211,4.269,2.654,6.48,1.07c11.586-8.297,16.058-21.823,11.698-35.387c-4.358-13.562-15.875-21.955-30.127-21.955
			s-25.769,8.393-30.128,21.955c-4.358,13.563,0.113,27.09,11.699,35.387C236.822,293.626,239.493,293.193,241.083,291.006z"/>
		<linearGradient id="SVGID_9_" gradientUnits="userSpaceOnUse" x1="149.2827" y1="263.8521" x2="212.8184" y2="263.8521">
			<stop  offset="0" style="stop-color:#787878"/>
			<stop  offset="1" style="stop-color:#ABABAB"/>
		</linearGradient>
		<path fill="url(#SVGID_9_)" stroke="#000000" stroke-width="2" d="M169.083,291.006c1.561-2.217,1.128-4.891-1.052-6.502
			c-8.186-5.861-11.345-15.418-8.266-25c3.08-9.582,11.216-15.512,21.285-15.512c6.045-0.11,11.652,2.151,15.928,6.425
			c4.276,4.273,6.539,9.878,6.429,15.921c0,7.35-3.36,13.886-9.337,18.166c-2.211,1.584-2.655,4.266-1.071,6.477
			c1.585,2.211,4.269,2.654,6.48,1.07c11.586-8.297,16.058-21.823,11.698-35.387c-4.358-13.562-15.875-21.955-30.127-21.955
			s-25.769,8.393-30.128,21.955c-4.358,13.563,0.113,27.09,11.699,35.387C164.822,293.626,167.493,293.193,169.083,291.006z"/>
		<linearGradient id="SVGID_10_" gradientUnits="userSpaceOnUse" x1="365.2827" y1="335.8184" x2="428.8184" y2="335.8184">
			<stop  offset="0" style="stop-color:#787878"/>
			<stop  offset="1" style="stop-color:#ABABAB"/>
		</linearGradient>
		<path fill="url(#SVGID_10_)" stroke="#000000" stroke-width="2" d="M385.084,362.973c1.56-2.215,1.127-4.891-1.053-6.502
			c-8.186-5.861-11.345-15.417-8.266-25c3.08-9.582,11.216-15.511,21.285-15.511c6.045-0.11,11.652,2.151,15.928,6.425
			c4.276,4.273,6.539,9.879,6.429,15.921c0,7.349-3.36,13.886-9.337,18.165c-2.211,1.584-2.655,4.267-1.071,6.478
			c1.585,2.21,4.269,2.653,6.48,1.069c11.586-8.296,16.058-21.822,11.698-35.386c-4.358-13.563-15.875-21.956-30.127-21.956
			s-25.769,8.393-30.128,21.956c-4.358,13.563,0.113,27.09,11.699,35.386C380.822,365.594,383.493,365.161,385.084,362.973z"/>
		<linearGradient id="SVGID_11_" gradientUnits="userSpaceOnUse" x1="293.2827" y1="335.8184" x2="356.8184" y2="335.8184">
			<stop  offset="0" style="stop-color:#787878"/>
			<stop  offset="1" style="stop-color:#ABABAB"/>
		</linearGradient>
		<path fill="url(#SVGID_11_)" stroke="#000000" stroke-width="2" d="M313.084,362.973c1.56-2.215,1.127-4.891-1.053-6.502
			c-8.186-5.861-11.345-15.417-8.266-25c3.08-9.582,11.216-15.511,21.285-15.511c6.045-0.11,11.652,2.151,15.928,6.425
			c4.276,4.273,6.539,9.879,6.429,15.921c0,7.349-3.36,13.886-9.337,18.165c-2.211,1.584-2.655,4.267-1.071,6.478
			c1.585,2.21,4.269,2.653,6.48,1.069c11.586-8.296,16.058-21.822,11.698-35.386c-4.358-13.563-15.875-21.956-30.127-21.956
			s-25.769,8.393-30.128,21.956c-4.358,13.563,0.113,27.09,11.699,35.386C308.822,365.594,311.493,365.161,313.084,362.973z"/>
		<linearGradient id="SVGID_12_" gradientUnits="userSpaceOnUse" x1="221.2827" y1="335.8184" x2="284.8184" y2="335.8184">
			<stop  offset="0" style="stop-color:#787878"/>
			<stop  offset="1" style="stop-color:#ABABAB"/>
		</linearGradient>
		<path fill="url(#SVGID_12_)" stroke="#000000" stroke-width="2" d="M241.083,362.973c1.561-2.215,1.128-4.891-1.052-6.502
			c-8.186-5.861-11.345-15.417-8.266-25c3.08-9.582,11.216-15.511,21.285-15.511c6.045-0.11,11.652,2.151,15.928,6.425
			c4.276,4.273,6.539,9.879,6.429,15.921c0,7.349-3.36,13.886-9.337,18.165c-2.211,1.584-2.655,4.267-1.071,6.478
			c1.585,2.21,4.269,2.653,6.48,1.069c11.586-8.296,16.058-21.822,11.698-35.386c-4.358-13.563-15.875-21.956-30.127-21.956
			s-25.769,8.393-30.128,21.956c-4.358,13.563,0.113,27.09,11.699,35.386C236.822,365.594,239.493,365.161,241.083,362.973z"/>
		<linearGradient id="SVGID_13_" gradientUnits="userSpaceOnUse" x1="149.2827" y1="335.8184" x2="212.8184" y2="335.8184">
			<stop  offset="0" style="stop-color:#787878"/>
			<stop  offset="1" style="stop-color:#ABABAB"/>
		</linearGradient>
		<path fill="url(#SVGID_13_)" stroke="#000000" stroke-width="2" d="M169.083,362.973c1.561-2.215,1.128-4.891-1.052-6.502
			c-8.186-5.861-11.345-15.417-8.266-25c3.08-9.582,11.216-15.511,21.285-15.511c6.045-0.11,11.652,2.151,15.928,6.425
			c4.276,4.273,6.539,9.879,6.429,15.921c0,7.349-3.36,13.886-9.337,18.165c-2.211,1.584-2.655,4.267-1.071,6.478
			c1.585,2.21,4.269,2.653,6.48,1.069c11.586-8.296,16.058-21.822,11.698-35.386c-4.358-13.563-15.875-21.956-30.127-21.956
			s-25.769,8.393-30.128,21.956c-4.358,13.563,0.113,27.09,11.699,35.386C164.822,365.594,167.493,365.161,169.083,362.973z"/>
		<linearGradient id="SVGID_14_" gradientUnits="userSpaceOnUse" x1="392.5547" y1="296.1948" x2="401.5547" y2="296.1948">
			<stop  offset="0" style="stop-color:#787878"/>
			<stop  offset="1" style="stop-color:#ABABAB"/>
		</linearGradient>
		<path fill="url(#SVGID_14_)" stroke="#000000" d="M401.555,296.194c0-2.635-1.863-4.497-4.5-4.497c-2.636,0-4.5,1.862-4.5,4.497
			c0,2.636,1.864,4.498,4.5,4.498C399.691,300.692,401.555,298.83,401.555,296.194z"/>
		<linearGradient id="SVGID_15_" gradientUnits="userSpaceOnUse" x1="320.5547" y1="296.1948" x2="329.5547" y2="296.1948">
			<stop  offset="0" style="stop-color:#787878"/>
			<stop  offset="1" style="stop-color:#ABABAB"/>
		</linearGradient>
		<path fill="url(#SVGID_15_)" stroke="#000000" d="M329.555,296.194c0-2.635-1.863-4.497-4.5-4.497c-2.636,0-4.5,1.862-4.5,4.497
			c0,2.636,1.864,4.498,4.5,4.498C327.691,300.692,329.555,298.83,329.555,296.194z"/>
		<linearGradient id="SVGID_16_" gradientUnits="userSpaceOnUse" x1="248.5547" y1="296.1948" x2="257.5547" y2="296.1948">
			<stop  offset="0" style="stop-color:#787878"/>
			<stop  offset="1" style="stop-color:#ABABAB"/>
		</linearGradient>
		<path fill="url(#SVGID_16_)" stroke="#000000" d="M257.555,296.194c0-2.635-1.863-4.497-4.5-4.497c-2.636,0-4.5,1.862-4.5,4.497
			c0,2.636,1.864,4.498,4.5,4.498C255.691,300.692,257.555,298.83,257.555,296.194z"/>
		<linearGradient id="SVGID_17_" gradientUnits="userSpaceOnUse" x1="176.5547" y1="296.1948" x2="185.5547" y2="296.1948">
			<stop  offset="0" style="stop-color:#787878"/>
			<stop  offset="1" style="stop-color:#ABABAB"/>
		</linearGradient>
		<path fill="url(#SVGID_17_)" stroke="#000000" d="M185.555,296.194c0-2.635-1.863-4.497-4.5-4.497c-2.636,0-4.5,1.862-4.5,4.497
			c0,2.636,1.864,4.498,4.5,4.498C183.691,300.692,185.555,298.83,185.555,296.194z"/>
		<linearGradient id="SVGID_18_" gradientUnits="userSpaceOnUse" x1="392.5547" y1="224.2266" x2="401.5547" y2="224.2266">
			<stop  offset="0" style="stop-color:#787878"/>
			<stop  offset="1" style="stop-color:#ABABAB"/>
		</linearGradient>
		<path fill="url(#SVGID_18_)" stroke="#000000" d="M401.555,224.227c0-2.635-1.863-4.498-4.5-4.498c-2.636,0-4.5,1.863-4.5,4.498
			s1.864,4.498,4.5,4.498C399.691,228.725,401.555,226.861,401.555,224.227z"/>
		<linearGradient id="SVGID_19_" gradientUnits="userSpaceOnUse" x1="320.5547" y1="224.2266" x2="329.5547" y2="224.2266">
			<stop  offset="0" style="stop-color:#787878"/>
			<stop  offset="1" style="stop-color:#ABABAB"/>
		</linearGradient>
		<path fill="url(#SVGID_19_)" stroke="#000000" d="M329.555,224.227c0-2.635-1.863-4.498-4.5-4.498c-2.636,0-4.5,1.863-4.5,4.498
			s1.864,4.498,4.5,4.498C327.691,228.725,329.555,226.861,329.555,224.227z"/>
		<linearGradient id="SVGID_20_" gradientUnits="userSpaceOnUse" x1="248.5547" y1="224.2266" x2="257.5547" y2="224.2266">
			<stop  offset="0" style="stop-color:#787878"/>
			<stop  offset="1" style="stop-color:#ABABAB"/>
		</linearGradient>
		<path fill="url(#SVGID_20_)" stroke="#000000" d="M257.555,224.227c0-2.635-1.863-4.498-4.5-4.498c-2.636,0-4.5,1.863-4.5,4.498
			s1.864,4.498,4.5,4.498C255.691,228.725,257.555,226.861,257.555,224.227z"/>
		<linearGradient id="SVGID_21_" gradientUnits="userSpaceOnUse" x1="176.5547" y1="224.2266" x2="185.5547" y2="224.2266">
			<stop  offset="0" style="stop-color:#787878"/>
			<stop  offset="1" style="stop-color:#ABABAB"/>
		</linearGradient>
		<path fill="url(#SVGID_21_)" stroke="#000000" d="M185.555,224.227c0-2.635-1.863-4.498-4.5-4.498c-2.636,0-4.5,1.863-4.5,4.498
			s1.864,4.498,4.5,4.498C183.691,228.725,185.555,226.861,185.555,224.227z"/>
		<linearGradient id="SVGID_22_" gradientUnits="userSpaceOnUse" x1="176.5547" y1="365.2832" x2="185.5547" y2="365.2832">
			<stop  offset="0" style="stop-color:#787878"/>
			<stop  offset="1" style="stop-color:#ABABAB"/>
		</linearGradient>
		<path fill="url(#SVGID_22_)" stroke="#000000" d="M185.555,365.283c0-2.635-1.863-4.498-4.5-4.498c-2.636,0-4.5,1.863-4.5,4.498
			s1.864,4.498,4.5,4.498C183.691,369.781,185.555,367.918,185.555,365.283z"/>
		<linearGradient id="SVGID_23_" gradientUnits="userSpaceOnUse" x1="248.5547" y1="365.2832" x2="257.5547" y2="365.2832">
			<stop  offset="0" style="stop-color:#787878"/>
			<stop  offset="1" style="stop-color:#ABABAB"/>
		</linearGradient>
		<path fill="url(#SVGID_23_)" stroke="#000000" d="M257.555,365.283c0-2.635-1.863-4.498-4.5-4.498c-2.636,0-4.5,1.863-4.5,4.498
			s1.864,4.498,4.5,4.498C255.691,369.781,257.555,367.918,257.555,365.283z"/>
		<linearGradient id="SVGID_24_" gradientUnits="userSpaceOnUse" x1="320.5547" y1="365.2832" x2="329.5547" y2="365.2832">
			<stop  offset="0" style="stop-color:#787878"/>
			<stop  offset="1" style="stop-color:#ABABAB"/>
		</linearGradient>
		<path fill="url(#SVGID_24_)" stroke="#000000" d="M329.555,365.283c0-2.635-1.863-4.498-4.5-4.498c-2.636,0-4.5,1.863-4.5,4.498
			s1.864,4.498,4.5,4.498C327.691,369.781,329.555,367.918,329.555,365.283z"/>
		<linearGradient id="SVGID_25_" gradientUnits="userSpaceOnUse" x1="392.5547" y1="365.2832" x2="401.5547" y2="365.2832">
			<stop  offset="0" style="stop-color:#787878"/>
			<stop  offset="1" style="stop-color:#ABABAB"/>
		</linearGradient>
		<path fill="url(#SVGID_25_)" stroke="#000000" d="M401.555,365.283c0-2.635-1.863-4.498-4.5-4.498c-2.636,0-4.5,1.863-4.5,4.498
			s1.864,4.498,4.5,4.498C399.691,369.781,401.555,367.918,401.555,365.283z"/>
		<g>
			<linearGradient id="SVGID_26_" gradientUnits="userSpaceOnUse" x1="365.2827" y1="406.8262" x2="428.8184" y2="406.8262">
				<stop  offset="0" style="stop-color:#787878"/>
				<stop  offset="1" style="stop-color:#ABABAB"/>
			</linearGradient>
			<path fill="url(#SVGID_26_)" stroke="#000000" stroke-width="2" d="M385.084,433.979c1.56-2.215,1.127-4.891-1.053-6.502
				c-8.186-5.861-11.345-15.417-8.266-25c3.08-9.582,11.216-15.511,21.285-15.511c6.045-0.11,11.652,2.151,15.928,6.425
				c4.276,4.273,6.539,9.879,6.429,15.921c0,7.349-3.36,13.886-9.337,18.165c-2.211,1.584-2.655,4.267-1.071,6.478
				c1.585,2.21,4.269,2.653,6.48,1.069c11.586-8.296,16.058-21.822,11.698-35.386c-4.358-13.563-15.875-21.956-30.127-21.956
				s-25.769,8.393-30.128,21.956c-4.358,13.563,0.113,27.09,11.699,35.386C380.822,436.601,383.493,436.168,385.084,433.979z"/>
			<linearGradient id="SVGID_27_" gradientUnits="userSpaceOnUse" x1="293.2827" y1="406.8262" x2="356.8184" y2="406.8262">
				<stop  offset="0" style="stop-color:#787878"/>
				<stop  offset="1" style="stop-color:#ABABAB"/>
			</linearGradient>
			<path fill="url(#SVGID_27_)" stroke="#000000" stroke-width="2" d="M313.084,433.979c1.56-2.215,1.127-4.891-1.053-6.502
				c-8.186-5.861-11.345-15.417-8.266-25c3.08-9.582,11.216-15.511,21.285-15.511c6.045-0.11,11.652,2.151,15.928,6.425
				c4.276,4.273,6.539,9.879,6.429,15.921c0,7.349-3.36,13.886-9.337,18.165c-2.211,1.584-2.655,4.267-1.071,6.478
				c1.585,2.21,4.269,2.653,6.48,1.069c11.586-8.296,16.058-21.822,11.698-35.386c-4.358-13.563-15.875-21.956-30.127-21.956
				s-25.769,8.393-30.128,21.956c-4.358,13.563,0.113,27.09,11.699,35.386C308.822,436.601,311.493,436.168,313.084,433.979z"/>
			<linearGradient id="SVGID_28_" gradientUnits="userSpaceOnUse" x1="221.2827" y1="406.8262" x2="284.8184" y2="406.8262">
				<stop  offset="0" style="stop-color:#787878"/>
				<stop  offset="1" style="stop-color:#ABABAB"/>
			</linearGradient>
			<path fill="url(#SVGID_28_)" stroke="#000000" stroke-width="2" d="M241.083,433.979c1.561-2.215,1.128-4.891-1.052-6.502
				c-8.186-5.861-11.345-15.417-8.266-25c3.08-9.582,11.216-15.511,21.285-15.511c6.045-0.11,11.652,2.151,15.928,6.425
				c4.276,4.273,6.539,9.879,6.429,15.921c0,7.349-3.36,13.886-9.337,18.165c-2.211,1.584-2.655,4.267-1.071,6.478
				c1.585,2.21,4.269,2.653,6.48,1.069c11.586-8.296,16.058-21.822,11.698-35.386c-4.358-13.563-15.875-21.956-30.127-21.956
				s-25.769,8.393-30.128,21.956c-4.358,13.563,0.113,27.09,11.699,35.386C236.822,436.601,239.493,436.168,241.083,433.979z"/>
			<linearGradient id="SVGID_29_" gradientUnits="userSpaceOnUse" x1="149.2827" y1="406.8262" x2="212.8184" y2="406.8262">
				<stop  offset="0" style="stop-color:#787878"/>
				<stop  offset="1" style="stop-color:#ABABAB"/>
			</linearGradient>
			<path fill="url(#SVGID_29_)" stroke="#000000" stroke-width="2" d="M169.083,433.979c1.561-2.215,1.128-4.891-1.052-6.502
				c-8.186-5.861-11.345-15.417-8.266-25c3.08-9.582,11.216-15.511,21.285-15.511c6.045-0.11,11.652,2.151,15.928,6.425
				c4.276,4.273,6.539,9.879,6.429,15.921c0,7.349-3.36,13.886-9.337,18.165c-2.211,1.584-2.655,4.267-1.071,6.478
				c1.585,2.21,4.269,2.653,6.48,1.069c11.586-8.296,16.058-21.822,11.698-35.386c-4.358-13.563-15.875-21.956-30.127-21.956
				s-25.769,8.393-30.128,21.956c-4.358,13.563,0.113,27.09,11.699,35.386C164.822,436.601,167.493,436.168,169.083,433.979z"/>
			<linearGradient id="SVGID_30_" gradientUnits="userSpaceOnUse" x1="176.5547" y1="436.29" x2="185.5547" y2="436.29">
				<stop  offset="0" style="stop-color:#787878"/>
				<stop  offset="1" style="stop-color:#ABABAB"/>
			</linearGradient>
			<path fill="url(#SVGID_30_)" stroke="#000000" d="M185.555,436.29c0-2.635-1.863-4.498-4.5-4.498c-2.636,0-4.5,1.863-4.5,4.498
				s1.864,4.498,4.5,4.498C183.691,440.788,185.555,438.925,185.555,436.29z"/>
			<linearGradient id="SVGID_31_" gradientUnits="userSpaceOnUse" x1="248.5547" y1="436.29" x2="257.5547" y2="436.29">
				<stop  offset="0" style="stop-color:#787878"/>
				<stop  offset="1" style="stop-color:#ABABAB"/>
			</linearGradient>
			<path fill="url(#SVGID_31_)" stroke="#000000" d="M257.555,436.29c0-2.635-1.863-4.498-4.5-4.498c-2.636,0-4.5,1.863-4.5,4.498
				s1.864,4.498,4.5,4.498C255.691,440.788,257.555,438.925,257.555,436.29z"/>
			<linearGradient id="SVGID_32_" gradientUnits="userSpaceOnUse" x1="320.5547" y1="436.29" x2="329.5547" y2="436.29">
				<stop  offset="0" style="stop-color:#787878"/>
				<stop  offset="1" style="stop-color:#ABABAB"/>
			</linearGradient>
			<path fill="url(#SVGID_32_)" stroke="#000000" d="M329.555,436.29c0-2.635-1.863-4.498-4.5-4.498c-2.636,0-4.5,1.863-4.5,4.498
				s1.864,4.498,4.5,4.498C327.691,440.788,329.555,438.925,329.555,436.29z"/>
			<linearGradient id="SVGID_33_" gradientUnits="userSpaceOnUse" x1="392.5547" y1="436.29" x2="401.5547" y2="436.29">
				<stop  offset="0" style="stop-color:#787878"/>
				<stop  offset="1" style="stop-color:#ABABAB"/>
			</linearGradient>
			<path fill="url(#SVGID_33_)" stroke="#000000" d="M401.555,436.29c0-2.635-1.863-4.498-4.5-4.498c-2.636,0-4.5,1.863-4.5,4.498
				s1.864,4.498,4.5,4.498C399.691,440.788,401.555,438.925,401.555,436.29z"/>
		</g>
	</g>
	<g>
		<linearGradient id="SVGID_34_" gradientUnits="userSpaceOnUse" x1="654.2871" y1="191.8843" x2="717.8232" y2="191.8843">
			<stop  offset="0" style="stop-color:#787878"/>
			<stop  offset="1" style="stop-color:#ABABAB"/>
		</linearGradient>
		<path fill="url(#SVGID_34_)" stroke="#000000" stroke-width="2" d="M674.089,219.038c1.56-2.216,1.127-4.891-1.053-6.502
			c-8.186-5.861-11.345-15.417-8.266-25c3.08-9.582,11.216-15.511,21.285-15.511c6.045-0.111,11.652,2.151,15.928,6.425
			c4.276,4.273,6.539,9.878,6.429,15.921c0,7.349-3.36,13.885-9.337,18.165c-2.211,1.583-2.655,4.267-1.071,6.478
			c1.585,2.21,4.269,2.653,6.48,1.07c11.586-8.297,16.058-21.824,11.698-35.387c-4.358-13.563-15.875-21.956-30.127-21.956
			s-25.769,8.393-30.128,21.956c-4.358,13.562,0.113,27.09,11.699,35.387C669.827,221.658,672.498,221.227,674.089,219.038z"/>
		<linearGradient id="SVGID_35_" gradientUnits="userSpaceOnUse" x1="582.2871" y1="191.8843" x2="645.8232" y2="191.8843">
			<stop  offset="0" style="stop-color:#787878"/>
			<stop  offset="1" style="stop-color:#ABABAB"/>
		</linearGradient>
		<path fill="url(#SVGID_35_)" stroke="#000000" stroke-width="2" d="M602.089,219.038c1.56-2.216,1.127-4.891-1.053-6.502
			c-8.186-5.861-11.345-15.417-8.266-25c3.08-9.582,11.216-15.511,21.285-15.511c6.045-0.111,11.652,2.151,15.928,6.425
			c4.276,4.273,6.539,9.878,6.429,15.921c0,7.349-3.36,13.885-9.337,18.165c-2.211,1.583-2.655,4.267-1.071,6.478
			c1.585,2.21,4.269,2.653,6.48,1.07c11.586-8.297,16.058-21.824,11.698-35.387c-4.358-13.563-15.875-21.956-30.127-21.956
			s-25.769,8.393-30.128,21.956c-4.358,13.562,0.113,27.09,11.699,35.387C597.827,221.658,600.498,221.227,602.089,219.038z"/>
		<linearGradient id="SVGID_36_" gradientUnits="userSpaceOnUse" x1="510.2871" y1="191.8843" x2="573.8232" y2="191.8843">
			<stop  offset="0" style="stop-color:#787878"/>
			<stop  offset="1" style="stop-color:#ABABAB"/>
		</linearGradient>
		<path fill="url(#SVGID_36_)" stroke="#000000" stroke-width="2" d="M530.088,219.038c1.561-2.216,1.128-4.891-1.052-6.502
			c-8.186-5.861-11.345-15.417-8.266-25c3.08-9.582,11.216-15.511,21.285-15.511c6.045-0.111,11.652,2.151,15.928,6.425
			c4.276,4.273,6.539,9.878,6.429,15.921c0,7.349-3.36,13.885-9.337,18.165c-2.211,1.583-2.655,4.267-1.071,6.478
			c1.585,2.21,4.269,2.653,6.48,1.07c11.586-8.297,16.058-21.824,11.698-35.387c-4.358-13.563-15.875-21.956-30.127-21.956
			s-25.769,8.393-30.128,21.956c-4.358,13.562,0.113,27.09,11.699,35.387C525.827,221.658,528.498,221.227,530.088,219.038z"/>
		<linearGradient id="SVGID_37_" gradientUnits="userSpaceOnUse" x1="438.2871" y1="191.8843" x2="501.8232" y2="191.8843">
			<stop  offset="0" style="stop-color:#787878"/>
			<stop  offset="1" style="stop-color:#ABABAB"/>
		</linearGradient>
		<path fill="url(#SVGID_37_)" stroke="#000000" stroke-width="2" d="M458.088,219.038c1.561-2.216,1.128-4.891-1.052-6.502
			c-8.186-5.861-11.345-15.417-8.266-25c3.08-9.582,11.216-15.511,21.285-15.511c6.045-0.111,11.652,2.151,15.928,6.425
			c4.276,4.273,6.539,9.878,6.429,15.921c0,7.349-3.36,13.885-9.337,18.165c-2.211,1.583-2.655,4.267-1.071,6.478
			c1.585,2.21,4.269,2.653,6.48,1.07c11.586-8.297,16.058-21.824,11.698-35.387c-4.358-13.563-15.875-21.956-30.127-21.956
			s-25.769,8.393-30.128,21.956c-4.358,13.562,0.113,27.09,11.699,35.387C453.827,221.658,456.498,221.227,458.088,219.038z"/>
		<linearGradient id="SVGID_38_" gradientUnits="userSpaceOnUse" x1="582.2871" y1="263.8521" x2="645.8232" y2="263.8521">
			<stop  offset="0" style="stop-color:#787878"/>
			<stop  offset="1" style="stop-color:#ABABAB"/>
		</linearGradient>
		<path fill="url(#SVGID_38_)" stroke="#000000" stroke-width="2" d="M602.089,291.006c1.56-2.217,1.127-4.891-1.053-6.502
			c-8.186-5.861-11.345-15.418-8.266-25c3.08-9.582,11.216-15.512,21.285-15.512c6.045-0.11,11.652,2.151,15.928,6.425
			c4.276,4.273,6.539,9.878,6.429,15.921c0,7.35-3.36,13.886-9.337,18.166c-2.211,1.584-2.655,4.266-1.071,6.477
			c1.585,2.211,4.269,2.654,6.48,1.07c11.586-8.297,16.058-21.823,11.698-35.387c-4.358-13.562-15.875-21.955-30.127-21.955
			s-25.769,8.393-30.128,21.955c-4.358,13.563,0.113,27.09,11.699,35.387C597.827,293.626,600.498,293.193,602.089,291.006z"/>
		<linearGradient id="SVGID_39_" gradientUnits="userSpaceOnUse" x1="653.7871" y1="263.8521" x2="717.3232" y2="263.8521">
			<stop  offset="0" style="stop-color:#787878"/>
			<stop  offset="1" style="stop-color:#ABABAB"/>
		</linearGradient>
		<path fill="url(#SVGID_39_)" stroke="#000000" stroke-width="2" d="M673.589,291.006c1.56-2.217,1.127-4.891-1.053-6.502
			c-8.186-5.861-11.345-15.418-8.266-25c3.08-9.582,11.216-15.512,21.285-15.512c6.045-0.11,11.652,2.151,15.928,6.425
			c4.276,4.273,6.539,9.878,6.429,15.921c0,7.35-3.36,13.886-9.337,18.166c-2.211,1.584-2.655,4.266-1.071,6.477
			c1.585,2.211,4.269,2.654,6.48,1.07c11.586-8.297,16.058-21.823,11.698-35.387c-4.358-13.562-15.875-21.955-30.127-21.955
			s-25.769,8.393-30.128,21.955c-4.358,13.563,0.113,27.09,11.699,35.387C669.327,293.626,671.998,293.193,673.589,291.006z"/>
		<linearGradient id="SVGID_40_" gradientUnits="userSpaceOnUse" x1="510.2871" y1="263.8521" x2="573.8232" y2="263.8521">
			<stop  offset="0" style="stop-color:#787878"/>
			<stop  offset="1" style="stop-color:#ABABAB"/>
		</linearGradient>
		<path fill="url(#SVGID_40_)" stroke="#000000" stroke-width="2" d="M530.088,291.006c1.561-2.217,1.128-4.891-1.052-6.502
			c-8.186-5.861-11.345-15.418-8.266-25c3.08-9.582,11.216-15.512,21.285-15.512c6.045-0.11,11.652,2.151,15.928,6.425
			c4.276,4.273,6.539,9.878,6.429,15.921c0,7.35-3.36,13.886-9.337,18.166c-2.211,1.584-2.655,4.266-1.071,6.477
			c1.585,2.211,4.269,2.654,6.48,1.07c11.586-8.297,16.058-21.823,11.698-35.387c-4.358-13.562-15.875-21.955-30.127-21.955
			s-25.769,8.393-30.128,21.955c-4.358,13.563,0.113,27.09,11.699,35.387C525.827,293.626,528.498,293.193,530.088,291.006z"/>
		<linearGradient id="SVGID_41_" gradientUnits="userSpaceOnUse" x1="438.2871" y1="263.8521" x2="501.8232" y2="263.8521">
			<stop  offset="0" style="stop-color:#787878"/>
			<stop  offset="1" style="stop-color:#ABABAB"/>
		</linearGradient>
		<path fill="url(#SVGID_41_)" stroke="#000000" stroke-width="2" d="M458.088,291.006c1.561-2.217,1.128-4.891-1.052-6.502
			c-8.186-5.861-11.345-15.418-8.266-25c3.08-9.582,11.216-15.512,21.285-15.512c6.045-0.11,11.652,2.151,15.928,6.425
			c4.276,4.273,6.539,9.878,6.429,15.921c0,7.35-3.36,13.886-9.337,18.166c-2.211,1.584-2.655,4.266-1.071,6.477
			c1.585,2.211,4.269,2.654,6.48,1.07c11.586-8.297,16.058-21.823,11.698-35.387c-4.358-13.562-15.875-21.955-30.127-21.955
			s-25.769,8.393-30.128,21.955c-4.358,13.563,0.113,27.09,11.699,35.387C453.827,293.626,456.498,293.193,458.088,291.006z"/>
		<linearGradient id="SVGID_42_" gradientUnits="userSpaceOnUse" x1="654.2871" y1="335.8184" x2="717.8232" y2="335.8184">
			<stop  offset="0" style="stop-color:#787878"/>
			<stop  offset="1" style="stop-color:#ABABAB"/>
		</linearGradient>
		<path fill="url(#SVGID_42_)" stroke="#000000" stroke-width="2" d="M674.089,362.973c1.56-2.215,1.127-4.891-1.053-6.502
			c-8.186-5.861-11.345-15.417-8.266-25c3.08-9.582,11.216-15.511,21.285-15.511c6.045-0.11,11.652,2.151,15.928,6.425
			c4.276,4.273,6.539,9.879,6.429,15.921c0,7.349-3.36,13.886-9.337,18.165c-2.211,1.584-2.655,4.267-1.071,6.478
			c1.585,2.21,4.269,2.653,6.48,1.069c11.586-8.296,16.058-21.822,11.698-35.386c-4.358-13.563-15.875-21.956-30.127-21.956
			s-25.769,8.393-30.128,21.956c-4.358,13.563,0.113,27.09,11.699,35.386C669.827,365.594,672.498,365.161,674.089,362.973z"/>
		<linearGradient id="SVGID_43_" gradientUnits="userSpaceOnUse" x1="582.2871" y1="335.8184" x2="645.8232" y2="335.8184">
			<stop  offset="0" style="stop-color:#787878"/>
			<stop  offset="1" style="stop-color:#ABABAB"/>
		</linearGradient>
		<path fill="url(#SVGID_43_)" stroke="#000000" stroke-width="2" d="M602.089,362.973c1.56-2.215,1.127-4.891-1.053-6.502
			c-8.186-5.861-11.345-15.417-8.266-25c3.08-9.582,11.216-15.511,21.285-15.511c6.045-0.11,11.652,2.151,15.928,6.425
			c4.276,4.273,6.539,9.879,6.429,15.921c0,7.349-3.36,13.886-9.337,18.165c-2.211,1.584-2.655,4.267-1.071,6.478
			c1.585,2.21,4.269,2.653,6.48,1.069c11.586-8.296,16.058-21.822,11.698-35.386c-4.358-13.563-15.875-21.956-30.127-21.956
			s-25.769,8.393-30.128,21.956c-4.358,13.563,0.113,27.09,11.699,35.386C597.827,365.594,600.498,365.161,602.089,362.973z"/>
		<linearGradient id="SVGID_44_" gradientUnits="userSpaceOnUse" x1="510.2871" y1="335.8184" x2="573.8232" y2="335.8184">
			<stop  offset="0" style="stop-color:#787878"/>
			<stop  offset="1" style="stop-color:#ABABAB"/>
		</linearGradient>
		<path fill="url(#SVGID_44_)" stroke="#000000" stroke-width="2" d="M530.088,362.973c1.561-2.215,1.128-4.891-1.052-6.502
			c-8.186-5.861-11.345-15.417-8.266-25c3.08-9.582,11.216-15.511,21.285-15.511c6.045-0.11,11.652,2.151,15.928,6.425
			c4.276,4.273,6.539,9.879,6.429,15.921c0,7.349-3.36,13.886-9.337,18.165c-2.211,1.584-2.655,4.267-1.071,6.478
			c1.585,2.21,4.269,2.653,6.48,1.069c11.586-8.296,16.058-21.822,11.698-35.386c-4.358-13.563-15.875-21.956-30.127-21.956
			s-25.769,8.393-30.128,21.956c-4.358,13.563,0.113,27.09,11.699,35.386C525.827,365.594,528.498,365.161,530.088,362.973z"/>
		<linearGradient id="SVGID_45_" gradientUnits="userSpaceOnUse" x1="438.2871" y1="335.8184" x2="501.8232" y2="335.8184">
			<stop  offset="0" style="stop-color:#787878"/>
			<stop  offset="1" style="stop-color:#ABABAB"/>
		</linearGradient>
		<path fill="url(#SVGID_45_)" stroke="#000000" stroke-width="2" d="M458.088,362.973c1.561-2.215,1.128-4.891-1.052-6.502
			c-8.186-5.861-11.345-15.417-8.266-25c3.08-9.582,11.216-15.511,21.285-15.511c6.045-0.11,11.652,2.151,15.928,6.425
			c4.276,4.273,6.539,9.879,6.429,15.921c0,7.349-3.36,13.886-9.337,18.165c-2.211,1.584-2.655,4.267-1.071,6.478
			c1.585,2.21,4.269,2.653,6.48,1.069c11.586-8.296,16.058-21.822,11.698-35.386c-4.358-13.563-15.875-21.956-30.127-21.956
			s-25.769,8.393-30.128,21.956c-4.358,13.563,0.113,27.09,11.699,35.386C453.827,365.594,456.498,365.161,458.088,362.973z"/>
		<linearGradient id="SVGID_46_" gradientUnits="userSpaceOnUse" x1="681.5596" y1="296.1948" x2="690.5596" y2="296.1948">
			<stop  offset="0" style="stop-color:#787878"/>
			<stop  offset="1" style="stop-color:#ABABAB"/>
		</linearGradient>
		<path fill="url(#SVGID_46_)" stroke="#000000" d="M690.56,296.194c0-2.635-1.863-4.497-4.5-4.497c-2.636,0-4.5,1.862-4.5,4.497
			c0,2.636,1.864,4.498,4.5,4.498C688.696,300.692,690.56,298.83,690.56,296.194z"/>
		<linearGradient id="SVGID_47_" gradientUnits="userSpaceOnUse" x1="609.5596" y1="296.1948" x2="618.5596" y2="296.1948">
			<stop  offset="0" style="stop-color:#787878"/>
			<stop  offset="1" style="stop-color:#ABABAB"/>
		</linearGradient>
		<path fill="url(#SVGID_47_)" stroke="#000000" d="M618.56,296.194c0-2.635-1.863-4.497-4.5-4.497c-2.636,0-4.5,1.862-4.5,4.497
			c0,2.636,1.864,4.498,4.5,4.498C616.696,300.692,618.56,298.83,618.56,296.194z"/>
		<linearGradient id="SVGID_48_" gradientUnits="userSpaceOnUse" x1="537.5596" y1="296.1948" x2="546.5596" y2="296.1948">
			<stop  offset="0" style="stop-color:#787878"/>
			<stop  offset="1" style="stop-color:#ABABAB"/>
		</linearGradient>
		<path fill="url(#SVGID_48_)" stroke="#000000" d="M546.56,296.194c0-2.635-1.863-4.497-4.5-4.497c-2.636,0-4.5,1.862-4.5,4.497
			c0,2.636,1.864,4.498,4.5,4.498C544.696,300.692,546.56,298.83,546.56,296.194z"/>
		<linearGradient id="SVGID_49_" gradientUnits="userSpaceOnUse" x1="465.5596" y1="296.1948" x2="474.5596" y2="296.1948">
			<stop  offset="0" style="stop-color:#787878"/>
			<stop  offset="1" style="stop-color:#ABABAB"/>
		</linearGradient>
		<path fill="url(#SVGID_49_)" stroke="#000000" d="M474.56,296.194c0-2.635-1.863-4.497-4.5-4.497c-2.636,0-4.5,1.862-4.5,4.497
			c0,2.636,1.864,4.498,4.5,4.498C472.696,300.692,474.56,298.83,474.56,296.194z"/>
		<linearGradient id="SVGID_50_" gradientUnits="userSpaceOnUse" x1="681.5596" y1="224.2266" x2="690.5596" y2="224.2266">
			<stop  offset="0" style="stop-color:#787878"/>
			<stop  offset="1" style="stop-color:#ABABAB"/>
		</linearGradient>
		<path fill="url(#SVGID_50_)" stroke="#000000" d="M690.56,224.227c0-2.635-1.863-4.498-4.5-4.498c-2.636,0-4.5,1.863-4.5,4.498
			s1.864,4.498,4.5,4.498C688.696,228.725,690.56,226.861,690.56,224.227z"/>
		<linearGradient id="SVGID_51_" gradientUnits="userSpaceOnUse" x1="609.5596" y1="224.2266" x2="618.5596" y2="224.2266">
			<stop  offset="0" style="stop-color:#787878"/>
			<stop  offset="1" style="stop-color:#ABABAB"/>
		</linearGradient>
		<path fill="url(#SVGID_51_)" stroke="#000000" d="M618.56,224.227c0-2.635-1.863-4.498-4.5-4.498c-2.636,0-4.5,1.863-4.5,4.498
			s1.864,4.498,4.5,4.498C616.696,228.725,618.56,226.861,618.56,224.227z"/>
		<linearGradient id="SVGID_52_" gradientUnits="userSpaceOnUse" x1="537.5596" y1="224.2266" x2="546.5596" y2="224.2266">
			<stop  offset="0" style="stop-color:#787878"/>
			<stop  offset="1" style="stop-color:#ABABAB"/>
		</linearGradient>
		<path fill="url(#SVGID_52_)" stroke="#000000" d="M546.56,224.227c0-2.635-1.863-4.498-4.5-4.498c-2.636,0-4.5,1.863-4.5,4.498
			s1.864,4.498,4.5,4.498C544.696,228.725,546.56,226.861,546.56,224.227z"/>
		<linearGradient id="SVGID_53_" gradientUnits="userSpaceOnUse" x1="465.5596" y1="224.2266" x2="474.5596" y2="224.2266">
			<stop  offset="0" style="stop-color:#787878"/>
			<stop  offset="1" style="stop-color:#ABABAB"/>
		</linearGradient>
		<path fill="url(#SVGID_53_)" stroke="#000000" d="M474.56,224.227c0-2.635-1.863-4.498-4.5-4.498c-2.636,0-4.5,1.863-4.5,4.498
			s1.864,4.498,4.5,4.498C472.696,228.725,474.56,226.861,474.56,224.227z"/>
		<linearGradient id="SVGID_54_" gradientUnits="userSpaceOnUse" x1="465.5596" y1="365.2832" x2="474.5596" y2="365.2832">
			<stop  offset="0" style="stop-color:#787878"/>
			<stop  offset="1" style="stop-color:#ABABAB"/>
		</linearGradient>
		<path fill="url(#SVGID_54_)" stroke="#000000" d="M474.56,365.283c0-2.635-1.863-4.498-4.5-4.498c-2.636,0-4.5,1.863-4.5,4.498
			s1.864,4.498,4.5,4.498C472.696,369.781,474.56,367.918,474.56,365.283z"/>
		<linearGradient id="SVGID_55_" gradientUnits="userSpaceOnUse" x1="537.5596" y1="365.2832" x2="546.5596" y2="365.2832">
			<stop  offset="0" style="stop-color:#787878"/>
			<stop  offset="1" style="stop-color:#ABABAB"/>
		</linearGradient>
		<path fill="url(#SVGID_55_)" stroke="#000000" d="M546.56,365.283c0-2.635-1.863-4.498-4.5-4.498c-2.636,0-4.5,1.863-4.5,4.498
			s1.864,4.498,4.5,4.498C544.696,369.781,546.56,367.918,546.56,365.283z"/>
		<linearGradient id="SVGID_56_" gradientUnits="userSpaceOnUse" x1="609.5596" y1="365.2832" x2="618.5596" y2="365.2832">
			<stop  offset="0" style="stop-color:#787878"/>
			<stop  offset="1" style="stop-color:#ABABAB"/>
		</linearGradient>
		<path fill="url(#SVGID_56_)" stroke="#000000" d="M618.56,365.283c0-2.635-1.863-4.498-4.5-4.498c-2.636,0-4.5,1.863-4.5,4.498
			s1.864,4.498,4.5,4.498C616.696,369.781,618.56,367.918,618.56,365.283z"/>
		<linearGradient id="SVGID_57_" gradientUnits="userSpaceOnUse" x1="681.5596" y1="365.2832" x2="690.5596" y2="365.2832">
			<stop  offset="0" style="stop-color:#787878"/>
			<stop  offset="1" style="stop-color:#ABABAB"/>
		</linearGradient>
		<path fill="url(#SVGID_57_)" stroke="#000000" d="M690.56,365.283c0-2.635-1.863-4.498-4.5-4.498c-2.636,0-4.5,1.863-4.5,4.498
			s1.864,4.498,4.5,4.498C688.696,369.781,690.56,367.918,690.56,365.283z"/>
	</g>
	<g>
		<g>
			<g id="CIRCLE_128_">
				<linearGradient id="SVGID_58_" gradientUnits="userSpaceOnUse" x1="174.2944" y1="210.1333" x2="187.7975" y2="178.3219">
					<stop  offset="0" style="stop-color:#000000"/>
					<stop  offset="1" style="stop-color:#171717"/>
				</linearGradient>
				<path fill="url(#SVGID_58_)" stroke="#010101" stroke-miterlimit="10" d="M198.321,194.229c0-9.541-7.732-17.275-17.275-17.275
					c-9.54,0-17.274,7.734-17.274,17.275c0,9.54,7.734,17.274,17.274,17.274C190.589,211.503,198.321,203.769,198.321,194.229
					L198.321,194.229z"/>
			</g>
			<g id="CIRCLE_127_">
				<linearGradient id="SVGID_59_" gradientUnits="userSpaceOnUse" x1="173.5449" y1="183.5156" x2="188.5464" y2="204.94">
					<stop  offset="0" style="stop-color:#000000"/>
					<stop  offset="1" style="stop-color:#454545"/>
				</linearGradient>
				<path fill="url(#SVGID_59_)" d="M194.123,194.228c0-7.221-5.854-13.076-13.077-13.076c-7.222,0-13.076,5.855-13.076,13.076
					c0,7.222,5.854,13.077,13.076,13.077C188.269,207.305,194.123,201.449,194.123,194.228L194.123,194.228z"/>
			</g>
		</g>
		<g>
			<g id="CIRCLE_126_">
				<linearGradient id="SVGID_60_" gradientUnits="userSpaceOnUse" x1="246.6284" y1="210.1338" x2="260.1317" y2="178.322">
					<stop  offset="0" style="stop-color:#000000"/>
					<stop  offset="1" style="stop-color:#171717"/>
				</linearGradient>
				<path fill="url(#SVGID_60_)" stroke="#010101" stroke-miterlimit="10" d="M270.654,194.229c0-9.541-7.732-17.275-17.275-17.275
					c-9.54,0-17.274,7.734-17.274,17.275c0,9.54,7.734,17.274,17.274,17.274C262.922,211.503,270.654,203.769,270.654,194.229
					L270.654,194.229z"/>
			</g>
			<g id="CIRCLE_125_">
				<linearGradient id="SVGID_61_" gradientUnits="userSpaceOnUse" x1="245.8779" y1="183.5146" x2="260.8805" y2="204.9406">
					<stop  offset="0" style="stop-color:#000000"/>
					<stop  offset="1" style="stop-color:#454545"/>
				</linearGradient>
				<path fill="url(#SVGID_61_)" d="M266.456,194.228c0-7.221-5.854-13.076-13.077-13.076c-7.222,0-13.076,5.855-13.076,13.076
					c0,7.222,5.854,13.077,13.076,13.077C260.602,207.305,266.456,201.449,266.456,194.228L266.456,194.228z"/>
			</g>
		</g>
		<g>
			<g id="CIRCLE_124_">
				<linearGradient id="SVGID_62_" gradientUnits="userSpaceOnUse" x1="318.2944" y1="210.1333" x2="331.7975" y2="178.3219">
					<stop  offset="0" style="stop-color:#000000"/>
					<stop  offset="1" style="stop-color:#171717"/>
				</linearGradient>
				<path fill="url(#SVGID_62_)" stroke="#010101" stroke-miterlimit="10" d="M342.321,194.229c0-9.541-7.732-17.275-17.275-17.275
					c-9.54,0-17.274,7.734-17.274,17.275c0,9.54,7.734,17.274,17.274,17.274C334.589,211.503,342.321,203.769,342.321,194.229
					L342.321,194.229z"/>
			</g>
			<g id="CIRCLE_123_">
				<linearGradient id="SVGID_63_" gradientUnits="userSpaceOnUse" x1="317.5449" y1="183.5151" x2="332.547" y2="204.9403">
					<stop  offset="0" style="stop-color:#000000"/>
					<stop  offset="1" style="stop-color:#454545"/>
				</linearGradient>
				<path fill="url(#SVGID_63_)" d="M338.123,194.228c0-7.221-5.854-13.076-13.077-13.076c-7.222,0-13.076,5.855-13.076,13.076
					c0,7.222,5.854,13.077,13.076,13.077C332.269,207.305,338.123,201.449,338.123,194.228L338.123,194.228z"/>
			</g>
		</g>
		<g>
			<g id="CIRCLE_122_">
				<linearGradient id="SVGID_64_" gradientUnits="userSpaceOnUse" x1="389.9624" y1="210.1338" x2="403.4657" y2="178.322">
					<stop  offset="0" style="stop-color:#000000"/>
					<stop  offset="1" style="stop-color:#171717"/>
				</linearGradient>
				<path fill="url(#SVGID_64_)" stroke="#010101" stroke-miterlimit="10" d="M413.988,194.229c0-9.541-7.732-17.275-17.275-17.275
					c-9.54,0-17.274,7.734-17.274,17.275c0,9.54,7.734,17.274,17.274,17.274C406.256,211.503,413.988,203.769,413.988,194.229
					L413.988,194.229z"/>
			</g>
			<g id="CIRCLE_121_">
				<linearGradient id="SVGID_65_" gradientUnits="userSpaceOnUse" x1="389.2119" y1="183.5156" x2="404.214" y2="204.9408">
					<stop  offset="0" style="stop-color:#000000"/>
					<stop  offset="1" style="stop-color:#454545"/>
				</linearGradient>
				<path fill="url(#SVGID_65_)" d="M409.79,194.228c0-7.221-5.854-13.076-13.077-13.076c-7.222,0-13.076,5.855-13.076,13.076
					c0,7.222,5.854,13.077,13.076,13.077C403.936,207.305,409.79,201.449,409.79,194.228L409.79,194.228z"/>
			</g>
		</g>
	</g>
	<g>
		<g>
			<g id="CIRCLE_120_">
				<linearGradient id="SVGID_66_" gradientUnits="userSpaceOnUse" x1="174.2939" y1="281.8008" x2="187.7976" y2="249.9881">
					<stop  offset="0" style="stop-color:#000000"/>
					<stop  offset="1" style="stop-color:#171717"/>
				</linearGradient>
				<path fill="url(#SVGID_66_)" stroke="#010101" stroke-miterlimit="10" d="M198.321,265.895c0-9.541-7.732-17.275-17.275-17.275
					c-9.54,0-17.274,7.734-17.274,17.275s7.734,17.275,17.274,17.275C190.589,283.17,198.321,275.436,198.321,265.895
					L198.321,265.895z"/>
			</g>
			<g id="CIRCLE_119_">
				<linearGradient id="SVGID_67_" gradientUnits="userSpaceOnUse" x1="173.5449" y1="255.1816" x2="188.547" y2="276.6068">
					<stop  offset="0" style="stop-color:#000000"/>
					<stop  offset="1" style="stop-color:#454545"/>
				</linearGradient>
				<path fill="url(#SVGID_67_)" d="M194.123,265.895c0-7.221-5.854-13.076-13.077-13.076c-7.222,0-13.076,5.855-13.076,13.076
					c0,7.222,5.854,13.076,13.076,13.076C188.269,278.971,194.123,273.116,194.123,265.895L194.123,265.895z"/>
			</g>
		</g>
		<g>
			<g id="CIRCLE_118_">
				<linearGradient id="SVGID_68_" gradientUnits="userSpaceOnUse" x1="246.6279" y1="281.8008" x2="260.1314" y2="249.9885">
					<stop  offset="0" style="stop-color:#000000"/>
					<stop  offset="1" style="stop-color:#171717"/>
				</linearGradient>
				<path fill="url(#SVGID_68_)" stroke="#010101" stroke-miterlimit="10" d="M270.654,265.895c0-9.541-7.732-17.275-17.275-17.275
					c-9.54,0-17.274,7.734-17.274,17.275s7.734,17.275,17.274,17.275C262.922,283.17,270.654,275.436,270.654,265.895
					L270.654,265.895z"/>
			</g>
			<g id="CIRCLE_117_">
				<linearGradient id="SVGID_69_" gradientUnits="userSpaceOnUse" x1="245.8784" y1="255.1821" x2="260.8799" y2="276.6065">
					<stop  offset="0" style="stop-color:#000000"/>
					<stop  offset="1" style="stop-color:#454545"/>
				</linearGradient>
				<path fill="url(#SVGID_69_)" d="M266.456,265.895c0-7.221-5.854-13.076-13.077-13.076c-7.222,0-13.076,5.855-13.076,13.076
					c0,7.222,5.854,13.076,13.076,13.076C260.602,278.971,266.456,273.116,266.456,265.895L266.456,265.895z"/>
			</g>
		</g>
		<g>
			<g id="CIRCLE_116_">
				<linearGradient id="SVGID_70_" gradientUnits="userSpaceOnUse" x1="318.2944" y1="281.8008" x2="331.7981" y2="249.9881">
					<stop  offset="0" style="stop-color:#000000"/>
					<stop  offset="1" style="stop-color:#171717"/>
				</linearGradient>
				<path fill="url(#SVGID_70_)" stroke="#010101" stroke-miterlimit="10" d="M342.321,265.895c0-9.541-7.732-17.275-17.275-17.275
					c-9.54,0-17.274,7.734-17.274,17.275s7.734,17.275,17.274,17.275C334.589,283.17,342.321,275.436,342.321,265.895
					L342.321,265.895z"/>
			</g>
			<g id="CIRCLE_115_">
				<linearGradient id="SVGID_71_" gradientUnits="userSpaceOnUse" x1="317.5449" y1="255.1816" x2="332.5464" y2="276.606">
					<stop  offset="0" style="stop-color:#000000"/>
					<stop  offset="1" style="stop-color:#454545"/>
				</linearGradient>
				<path fill="url(#SVGID_71_)" d="M338.123,265.895c0-7.221-5.854-13.076-13.077-13.076c-7.222,0-13.076,5.855-13.076,13.076
					c0,7.222,5.854,13.076,13.076,13.076C332.269,278.971,338.123,273.116,338.123,265.895L338.123,265.895z"/>
			</g>
		</g>
		<g>
			<g id="CIRCLE_114_">
				<linearGradient id="SVGID_72_" gradientUnits="userSpaceOnUse" x1="389.9624" y1="281.8008" x2="403.4659" y2="249.9885">
					<stop  offset="0" style="stop-color:#000000"/>
					<stop  offset="1" style="stop-color:#171717"/>
				</linearGradient>
				<path fill="url(#SVGID_72_)" stroke="#010101" stroke-miterlimit="10" d="M413.988,265.895c0-9.541-7.732-17.275-17.275-17.275
					c-9.54,0-17.274,7.734-17.274,17.275s7.734,17.275,17.274,17.275C406.256,283.17,413.988,275.436,413.988,265.895
					L413.988,265.895z"/>
			</g>
			<g id="CIRCLE_113_">
				<linearGradient id="SVGID_73_" gradientUnits="userSpaceOnUse" x1="389.2119" y1="255.1821" x2="404.2134" y2="276.6065">
					<stop  offset="0" style="stop-color:#000000"/>
					<stop  offset="1" style="stop-color:#454545"/>
				</linearGradient>
				<path fill="url(#SVGID_73_)" d="M409.79,265.895c0-7.221-5.854-13.076-13.077-13.076c-7.222,0-13.076,5.855-13.076,13.076
					c0,7.222,5.854,13.076,13.076,13.076C403.936,278.971,409.79,273.116,409.79,265.895L409.79,265.895z"/>
			</g>
		</g>
	</g>
	<g>
		<g>
			<g id="CIRCLE_112_">
				<linearGradient id="SVGID_74_" gradientUnits="userSpaceOnUse" x1="174.2949" y1="354.1328" x2="187.798" y2="322.3215">
					<stop  offset="0" style="stop-color:#000000"/>
					<stop  offset="1" style="stop-color:#171717"/>
				</linearGradient>
				<path fill="url(#SVGID_74_)" stroke="#010101" stroke-miterlimit="10" d="M198.321,338.229c0-9.541-7.732-17.275-17.275-17.275
					c-9.54,0-17.274,7.734-17.274,17.275c0,9.54,7.734,17.274,17.274,17.274C190.589,355.503,198.321,347.769,198.321,338.229
					L198.321,338.229z"/>
			</g>
			<g id="CIRCLE_111_">
				<linearGradient id="SVGID_75_" gradientUnits="userSpaceOnUse" x1="173.5444" y1="327.5146" x2="188.547" y2="348.9406">
					<stop  offset="0" style="stop-color:#000000"/>
					<stop  offset="1" style="stop-color:#454545"/>
				</linearGradient>
				<path fill="url(#SVGID_75_)" d="M194.123,338.228c0-7.221-5.854-13.075-13.077-13.075c-7.222,0-13.076,5.854-13.076,13.075
					c0,7.222,5.854,13.077,13.076,13.077C188.269,351.305,194.123,345.449,194.123,338.228L194.123,338.228z"/>
			</g>
		</g>
		<g>
			<g id="CIRCLE_110_">
				<linearGradient id="SVGID_76_" gradientUnits="userSpaceOnUse" x1="246.6279" y1="354.1338" x2="260.1312" y2="322.322">
					<stop  offset="0" style="stop-color:#000000"/>
					<stop  offset="1" style="stop-color:#171717"/>
				</linearGradient>
				<path fill="url(#SVGID_76_)" stroke="#010101" stroke-miterlimit="10" d="M270.654,338.229c0-9.541-7.732-17.275-17.275-17.275
					c-9.54,0-17.274,7.734-17.274,17.275c0,9.54,7.734,17.274,17.274,17.274C262.922,355.503,270.654,347.769,270.654,338.229
					L270.654,338.229z"/>
			</g>
			<g id="CIRCLE_109_">
				<linearGradient id="SVGID_77_" gradientUnits="userSpaceOnUse" x1="245.8779" y1="327.5156" x2="260.8794" y2="348.94">
					<stop  offset="0" style="stop-color:#000000"/>
					<stop  offset="1" style="stop-color:#454545"/>
				</linearGradient>
				<path fill="url(#SVGID_77_)" d="M266.456,338.228c0-7.221-5.854-13.075-13.077-13.075c-7.222,0-13.076,5.854-13.076,13.075
					c0,7.222,5.854,13.077,13.076,13.077C260.602,351.305,266.456,345.449,266.456,338.228L266.456,338.228z"/>
			</g>
		</g>
		<g>
			<g id="CIRCLE_108_">
				<linearGradient id="SVGID_78_" gradientUnits="userSpaceOnUse" x1="318.2949" y1="354.1338" x2="331.798" y2="322.3224">
					<stop  offset="0" style="stop-color:#000000"/>
					<stop  offset="1" style="stop-color:#171717"/>
				</linearGradient>
				<path fill="url(#SVGID_78_)" stroke="#010101" stroke-miterlimit="10" d="M342.321,338.229c0-9.541-7.732-17.275-17.275-17.275
					c-9.54,0-17.274,7.734-17.274,17.275c0,9.54,7.734,17.274,17.274,17.274C334.589,355.503,342.321,347.769,342.321,338.229
					L342.321,338.229z"/>
			</g>
			<g id="CIRCLE_107_">
				<linearGradient id="SVGID_79_" gradientUnits="userSpaceOnUse" x1="317.5449" y1="327.5156" x2="332.547" y2="348.9408">
					<stop  offset="0" style="stop-color:#000000"/>
					<stop  offset="1" style="stop-color:#454545"/>
				</linearGradient>
				<path fill="url(#SVGID_79_)" d="M338.123,338.228c0-7.221-5.854-13.075-13.077-13.075c-7.222,0-13.076,5.854-13.076,13.075
					c0,7.222,5.854,13.077,13.076,13.077C332.269,351.305,338.123,345.449,338.123,338.228L338.123,338.228z"/>
			</g>
		</g>
		<g>
			<g id="CIRCLE_106_">
				<linearGradient id="SVGID_80_" gradientUnits="userSpaceOnUse" x1="389.9619" y1="354.1338" x2="403.4652" y2="322.322">
					<stop  offset="0" style="stop-color:#000000"/>
					<stop  offset="1" style="stop-color:#171717"/>
				</linearGradient>
				<path fill="url(#SVGID_80_)" stroke="#010101" stroke-miterlimit="10" d="M413.988,338.229c0-9.541-7.732-17.275-17.275-17.275
					c-9.54,0-17.274,7.734-17.274,17.275c0,9.54,7.734,17.274,17.274,17.274C406.256,355.503,413.988,347.769,413.988,338.229
					L413.988,338.229z"/>
			</g>
			<g id="CIRCLE_105_">
				<linearGradient id="SVGID_81_" gradientUnits="userSpaceOnUse" x1="389.2119" y1="327.5156" x2="404.214" y2="348.9408">
					<stop  offset="0" style="stop-color:#000000"/>
					<stop  offset="1" style="stop-color:#454545"/>
				</linearGradient>
				<path fill="url(#SVGID_81_)" d="M409.79,338.228c0-7.221-5.854-13.075-13.077-13.075c-7.222,0-13.076,5.854-13.076,13.075
					c0,7.222,5.854,13.077,13.076,13.077C403.936,351.305,409.79,345.449,409.79,338.228L409.79,338.228z"/>
			</g>
		</g>
	</g>
	<g>
		<g>
			<g id="CIRCLE_104_">
				<linearGradient id="SVGID_82_" gradientUnits="userSpaceOnUse" x1="463.2988" y1="210.1328" x2="476.8019" y2="178.3215">
					<stop  offset="0" style="stop-color:#000000"/>
					<stop  offset="1" style="stop-color:#171717"/>
				</linearGradient>
				<path fill="url(#SVGID_82_)" stroke="#010101" stroke-miterlimit="10" d="M487.325,194.229c0-9.541-7.732-17.275-17.275-17.275
					c-9.54,0-17.274,7.734-17.274,17.275c0,9.54,7.734,17.274,17.274,17.274C479.593,211.503,487.325,203.769,487.325,194.229
					L487.325,194.229z"/>
			</g>
			<g id="CIRCLE_103_">
				<linearGradient id="SVGID_83_" gradientUnits="userSpaceOnUse" x1="462.5488" y1="183.5156" x2="477.5503" y2="204.94">
					<stop  offset="0" style="stop-color:#000000"/>
					<stop  offset="1" style="stop-color:#454545"/>
				</linearGradient>
				<path fill="url(#SVGID_83_)" d="M483.127,194.228c0-7.221-5.854-13.076-13.077-13.076c-7.222,0-13.076,5.855-13.076,13.076
					c0,7.222,5.854,13.077,13.076,13.077C477.272,207.305,483.127,201.449,483.127,194.228L483.127,194.228z"/>
			</g>
		</g>
		<g>
			<g id="CIRCLE_102_">
				<linearGradient id="SVGID_84_" gradientUnits="userSpaceOnUse" x1="535.6328" y1="210.1338" x2="549.1361" y2="178.322">
					<stop  offset="0" style="stop-color:#000000"/>
					<stop  offset="1" style="stop-color:#171717"/>
				</linearGradient>
				<path fill="url(#SVGID_84_)" stroke="#010101" stroke-miterlimit="10" d="M559.658,194.229c0-9.541-7.732-17.275-17.275-17.275
					c-9.54,0-17.274,7.734-17.274,17.275c0,9.54,7.734,17.274,17.274,17.274C551.926,211.503,559.658,203.769,559.658,194.229
					L559.658,194.229z"/>
			</g>
			<g id="CIRCLE_101_">
				<linearGradient id="SVGID_85_" gradientUnits="userSpaceOnUse" x1="534.8818" y1="183.5156" x2="549.8839" y2="204.9408">
					<stop  offset="0" style="stop-color:#000000"/>
					<stop  offset="1" style="stop-color:#454545"/>
				</linearGradient>
				<path fill="url(#SVGID_85_)" d="M555.46,194.228c0-7.221-5.854-13.076-13.077-13.076c-7.222,0-13.076,5.855-13.076,13.076
					c0,7.222,5.854,13.077,13.076,13.077C549.605,207.305,555.46,201.449,555.46,194.228L555.46,194.228z"/>
			</g>
		</g>
		<g>
			<g id="CIRCLE_100_">
				<linearGradient id="SVGID_86_" gradientUnits="userSpaceOnUse" x1="607.2988" y1="210.1328" x2="620.8019" y2="178.3215">
					<stop  offset="0" style="stop-color:#000000"/>
					<stop  offset="1" style="stop-color:#171717"/>
				</linearGradient>
				<path fill="url(#SVGID_86_)" stroke="#010101" stroke-miterlimit="10" d="M631.325,194.229c0-9.541-7.732-17.275-17.275-17.275
					c-9.54,0-17.274,7.734-17.274,17.275c0,9.54,7.734,17.274,17.274,17.274C623.593,211.503,631.325,203.769,631.325,194.229
					L631.325,194.229z"/>
			</g>
			<g id="CIRCLE_99_">
				<linearGradient id="SVGID_87_" gradientUnits="userSpaceOnUse" x1="606.5488" y1="183.5146" x2="621.5509" y2="204.9398">
					<stop  offset="0" style="stop-color:#000000"/>
					<stop  offset="1" style="stop-color:#454545"/>
				</linearGradient>
				<path fill="url(#SVGID_87_)" d="M627.127,194.228c0-7.221-5.854-13.076-13.077-13.076c-7.222,0-13.076,5.855-13.076,13.076
					c0,7.222,5.854,13.077,13.076,13.077C621.272,207.305,627.127,201.449,627.127,194.228L627.127,194.228z"/>
			</g>
		</g>
		<g>
			<g id="CIRCLE_98_">
				<linearGradient id="SVGID_88_" gradientUnits="userSpaceOnUse" x1="678.9658" y1="210.1338" x2="692.4691" y2="178.322">
					<stop  offset="0" style="stop-color:#000000"/>
					<stop  offset="1" style="stop-color:#171717"/>
				</linearGradient>
				<path fill="url(#SVGID_88_)" stroke="#010101" stroke-miterlimit="10" d="M702.992,194.229c0-9.541-7.732-17.275-17.275-17.275
					c-9.54,0-17.274,7.734-17.274,17.275c0,9.54,7.734,17.274,17.274,17.274C695.26,211.503,702.992,203.769,702.992,194.229
					L702.992,194.229z"/>
			</g>
			<g id="CIRCLE_97_">
				<linearGradient id="SVGID_89_" gradientUnits="userSpaceOnUse" x1="678.2158" y1="183.5151" x2="693.2179" y2="204.9403">
					<stop  offset="0" style="stop-color:#000000"/>
					<stop  offset="1" style="stop-color:#454545"/>
				</linearGradient>
				<path fill="url(#SVGID_89_)" d="M698.794,194.228c0-7.221-5.854-13.076-13.077-13.076c-7.222,0-13.076,5.855-13.076,13.076
					c0,7.222,5.854,13.077,13.076,13.077C692.939,207.305,698.794,201.449,698.794,194.228L698.794,194.228z"/>
			</g>
		</g>
	</g>
	<g>
		<g>
			<g id="CIRCLE_96_">
				<linearGradient id="SVGID_90_" gradientUnits="userSpaceOnUse" x1="463.2969" y1="281.8008" x2="476.8006" y2="249.9881">
					<stop  offset="0" style="stop-color:#000000"/>
					<stop  offset="1" style="stop-color:#171717"/>
				</linearGradient>
				<path fill="url(#SVGID_90_)" stroke="#010101" stroke-miterlimit="10" d="M487.325,265.895c0-9.541-7.732-17.275-17.275-17.275
					c-9.54,0-17.274,7.734-17.274,17.275s7.734,17.275,17.274,17.275C479.593,283.17,487.325,275.436,487.325,265.895
					L487.325,265.895z"/>
			</g>
			<g id="CIRCLE_95_">
				<linearGradient id="SVGID_91_" gradientUnits="userSpaceOnUse" x1="462.5488" y1="255.1807" x2="477.5509" y2="276.6058">
					<stop  offset="0" style="stop-color:#000000"/>
					<stop  offset="1" style="stop-color:#454545"/>
				</linearGradient>
				<path fill="url(#SVGID_91_)" d="M483.127,265.895c0-7.221-5.854-13.076-13.077-13.076c-7.222,0-13.076,5.855-13.076,13.076
					c0,7.222,5.854,13.076,13.076,13.076C477.272,278.971,483.127,273.116,483.127,265.895L483.127,265.895z"/>
			</g>
		</g>
		<g>
			<g id="CIRCLE_94_">
				<linearGradient id="SVGID_92_" gradientUnits="userSpaceOnUse" x1="535.6309" y1="281.8013" x2="549.1345" y2="249.9886">
					<stop  offset="0" style="stop-color:#000000"/>
					<stop  offset="1" style="stop-color:#171717"/>
				</linearGradient>
				<path fill="url(#SVGID_92_)" stroke="#010101" stroke-miterlimit="10" d="M559.658,265.895c0-9.541-7.732-17.275-17.275-17.275
					c-9.54,0-17.274,7.734-17.274,17.275s7.734,17.275,17.274,17.275C551.926,283.17,559.658,275.436,559.658,265.895
					L559.658,265.895z"/>
			</g>
			<g id="CIRCLE_93_">
				<linearGradient id="SVGID_93_" gradientUnits="userSpaceOnUse" x1="534.8818" y1="255.1821" x2="549.8833" y2="276.6065">
					<stop  offset="0" style="stop-color:#000000"/>
					<stop  offset="1" style="stop-color:#454545"/>
				</linearGradient>
				<path fill="url(#SVGID_93_)" d="M555.46,265.895c0-7.221-5.854-13.076-13.077-13.076c-7.222,0-13.076,5.855-13.076,13.076
					c0,7.222,5.854,13.076,13.076,13.076C549.605,278.971,555.46,273.116,555.46,265.895L555.46,265.895z"/>
			</g>
		</g>
		<g>
			<g id="CIRCLE_92_">
				<linearGradient id="SVGID_94_" gradientUnits="userSpaceOnUse" x1="607.2979" y1="281.8008" x2="620.8015" y2="249.9881">
					<stop  offset="0" style="stop-color:#000000"/>
					<stop  offset="1" style="stop-color:#171717"/>
				</linearGradient>
				<path fill="url(#SVGID_94_)" stroke="#010101" stroke-miterlimit="10" d="M631.325,265.895c0-9.541-7.732-17.275-17.275-17.275
					c-9.54,0-17.274,7.734-17.274,17.275s7.734,17.275,17.274,17.275C623.593,283.17,631.325,275.436,631.325,265.895
					L631.325,265.895z"/>
			</g>
			<g id="CIRCLE_91_">
				<linearGradient id="SVGID_95_" gradientUnits="userSpaceOnUse" x1="606.5488" y1="255.1821" x2="621.5509" y2="276.6073">
					<stop  offset="0" style="stop-color:#000000"/>
					<stop  offset="1" style="stop-color:#454545"/>
				</linearGradient>
				<path fill="url(#SVGID_95_)" d="M627.127,265.895c0-7.221-5.854-13.076-13.077-13.076c-7.222,0-13.076,5.855-13.076,13.076
					c0,7.222,5.854,13.076,13.076,13.076C621.272,278.971,627.127,273.116,627.127,265.895L627.127,265.895z"/>
			</g>
		</g>
		<g>
			<g id="CIRCLE_90_">
				<linearGradient id="SVGID_96_" gradientUnits="userSpaceOnUse" x1="678.9658" y1="281.8008" x2="692.4693" y2="249.9885">
					<stop  offset="0" style="stop-color:#000000"/>
					<stop  offset="1" style="stop-color:#171717"/>
				</linearGradient>
				<path fill="url(#SVGID_96_)" stroke="#010101" stroke-miterlimit="10" d="M702.992,265.895c0-9.541-7.732-17.275-17.275-17.275
					c-9.54,0-17.274,7.734-17.274,17.275s7.734,17.275,17.274,17.275C695.26,283.17,702.992,275.436,702.992,265.895
					L702.992,265.895z"/>
			</g>
			<g id="CIRCLE_89_">
				<linearGradient id="SVGID_97_" gradientUnits="userSpaceOnUse" x1="678.2158" y1="255.1816" x2="693.2179" y2="276.6068">
					<stop  offset="0" style="stop-color:#000000"/>
					<stop  offset="1" style="stop-color:#454545"/>
				</linearGradient>
				<path fill="url(#SVGID_97_)" d="M698.794,265.895c0-7.221-5.854-13.076-13.077-13.076c-7.222,0-13.076,5.855-13.076,13.076
					c0,7.222,5.854,13.076,13.076,13.076C692.939,278.971,698.794,273.116,698.794,265.895L698.794,265.895z"/>
			</g>
		</g>
	</g>
	<g>
		<g>
			<g id="CIRCLE_88_">
				<linearGradient id="SVGID_98_" gradientUnits="userSpaceOnUse" x1="463.2988" y1="354.1328" x2="476.8019" y2="322.3215">
					<stop  offset="0" style="stop-color:#000000"/>
					<stop  offset="1" style="stop-color:#171717"/>
				</linearGradient>
				<path fill="url(#SVGID_98_)" stroke="#010101" stroke-miterlimit="10" d="M487.325,338.229c0-9.541-7.732-17.275-17.275-17.275
					c-9.54,0-17.274,7.734-17.274,17.275c0,9.54,7.734,17.274,17.274,17.274C479.593,355.503,487.325,347.769,487.325,338.229
					L487.325,338.229z"/>
			</g>
			<g id="CIRCLE_87_">
				<linearGradient id="SVGID_99_" gradientUnits="userSpaceOnUse" x1="462.5488" y1="327.5146" x2="477.5514" y2="348.9406">
					<stop  offset="0" style="stop-color:#000000"/>
					<stop  offset="1" style="stop-color:#454545"/>
				</linearGradient>
				<path fill="url(#SVGID_99_)" d="M483.127,338.228c0-7.221-5.854-13.075-13.077-13.075c-7.222,0-13.076,5.854-13.076,13.075
					c0,7.222,5.854,13.077,13.076,13.077C477.272,351.305,483.127,345.449,483.127,338.228L483.127,338.228z"/>
			</g>
		</g>
		<g>
			<g id="CIRCLE_86_">
				<linearGradient id="SVGID_100_" gradientUnits="userSpaceOnUse" x1="535.6328" y1="354.1338" x2="549.1361" y2="322.322">
					<stop  offset="0" style="stop-color:#000000"/>
					<stop  offset="1" style="stop-color:#171717"/>
				</linearGradient>
				<path fill="url(#SVGID_100_)" stroke="#010101" stroke-miterlimit="10" d="M559.658,338.229c0-9.541-7.732-17.275-17.275-17.275
					c-9.54,0-17.274,7.734-17.274,17.275c0,9.54,7.734,17.274,17.274,17.274C551.926,355.503,559.658,347.769,559.658,338.229
					L559.658,338.229z"/>
			</g>
			<g id="CIRCLE_85_">
				<linearGradient id="SVGID_101_" gradientUnits="userSpaceOnUse" x1="534.8828" y1="327.5156" x2="549.8837" y2="348.9392">
					<stop  offset="0" style="stop-color:#000000"/>
					<stop  offset="1" style="stop-color:#454545"/>
				</linearGradient>
				<path fill="url(#SVGID_101_)" d="M555.46,338.228c0-7.221-5.854-13.075-13.077-13.075c-7.222,0-13.076,5.854-13.076,13.075
					c0,7.222,5.854,13.077,13.076,13.077C549.605,351.305,555.46,345.449,555.46,338.228L555.46,338.228z"/>
			</g>
		</g>
		<g>
			<g id="CIRCLE_84_">
				<linearGradient id="SVGID_102_" gradientUnits="userSpaceOnUse" x1="607.2988" y1="354.1328" x2="620.8019" y2="322.3215">
					<stop  offset="0" style="stop-color:#000000"/>
					<stop  offset="1" style="stop-color:#171717"/>
				</linearGradient>
				<path fill="url(#SVGID_102_)" stroke="#010101" stroke-miterlimit="10" d="M631.325,338.229c0-9.541-7.732-17.275-17.275-17.275
					c-9.54,0-17.274,7.734-17.274,17.275c0,9.54,7.734,17.274,17.274,17.274C623.593,355.503,631.325,347.769,631.325,338.229
					L631.325,338.229z"/>
			</g>
			<g id="CIRCLE_83_">
				<linearGradient id="SVGID_103_" gradientUnits="userSpaceOnUse" x1="606.5488" y1="327.5156" x2="621.5509" y2="348.9408">
					<stop  offset="0" style="stop-color:#000000"/>
					<stop  offset="1" style="stop-color:#454545"/>
				</linearGradient>
				<path fill="url(#SVGID_103_)" d="M627.127,338.228c0-7.221-5.854-13.075-13.077-13.075c-7.222,0-13.076,5.854-13.076,13.075
					c0,7.222,5.854,13.077,13.076,13.077C621.272,351.305,627.127,345.449,627.127,338.228L627.127,338.228z"/>
			</g>
		</g>
		<g>
			<g id="CIRCLE_82_">
				<linearGradient id="SVGID_104_" gradientUnits="userSpaceOnUse" x1="678.9668" y1="354.1338" x2="692.4701" y2="322.322">
					<stop  offset="0" style="stop-color:#000000"/>
					<stop  offset="1" style="stop-color:#171717"/>
				</linearGradient>
				<path fill="url(#SVGID_104_)" stroke="#010101" stroke-miterlimit="10" d="M702.992,338.229c0-9.541-7.732-17.275-17.275-17.275
					c-9.54,0-17.274,7.734-17.274,17.275c0,9.54,7.734,17.274,17.274,17.274C695.26,355.503,702.992,347.769,702.992,338.229
					L702.992,338.229z"/>
			</g>
			<g id="CIRCLE_81_">
				<linearGradient id="SVGID_105_" gradientUnits="userSpaceOnUse" x1="678.2158" y1="327.5146" x2="693.2179" y2="348.9398">
					<stop  offset="0" style="stop-color:#000000"/>
					<stop  offset="1" style="stop-color:#454545"/>
				</linearGradient>
				<path fill="url(#SVGID_105_)" d="M698.794,338.228c0-7.221-5.854-13.075-13.077-13.075c-7.222,0-13.076,5.854-13.076,13.075
					c0,7.222,5.854,13.077,13.076,13.077C692.939,351.305,698.794,345.449,698.794,338.228L698.794,338.228z"/>
			</g>
		</g>
	</g>
	<g>
		<g>
			<g id="CIRCLE_80_">
				<linearGradient id="SVGID_106_" gradientUnits="userSpaceOnUse" x1="174.2949" y1="425.1406" x2="187.798" y2="393.3293">
					<stop  offset="0" style="stop-color:#000000"/>
					<stop  offset="1" style="stop-color:#171717"/>
				</linearGradient>
				<path fill="url(#SVGID_106_)" stroke="#010101" stroke-miterlimit="10" d="M198.321,409.235c0-9.541-7.732-17.275-17.275-17.275
					c-9.54,0-17.274,7.734-17.274,17.275c0,9.54,7.734,17.274,17.274,17.274C190.589,426.51,198.321,418.775,198.321,409.235
					L198.321,409.235z"/>
			</g>
			<g id="CIRCLE_79_">
				<linearGradient id="SVGID_107_" gradientUnits="userSpaceOnUse" x1="173.5449" y1="398.5225" x2="188.5464" y2="419.9468">
					<stop  offset="0" style="stop-color:#000000"/>
					<stop  offset="1" style="stop-color:#454545"/>
				</linearGradient>
				<path fill="url(#SVGID_107_)" d="M194.123,409.234c0-7.221-5.854-13.075-13.077-13.075c-7.222,0-13.076,5.854-13.076,13.075
					c0,7.222,5.854,13.077,13.076,13.077C188.269,422.312,194.123,416.456,194.123,409.234L194.123,409.234z"/>
			</g>
		</g>
		<g>
			<g id="CIRCLE_78_">
				<linearGradient id="SVGID_108_" gradientUnits="userSpaceOnUse" x1="246.6289" y1="425.1406" x2="260.1322" y2="393.3288">
					<stop  offset="0" style="stop-color:#000000"/>
					<stop  offset="1" style="stop-color:#171717"/>
				</linearGradient>
				<path fill="url(#SVGID_108_)" stroke="#010101" stroke-miterlimit="10" d="M270.654,409.235c0-9.541-7.732-17.275-17.275-17.275
					c-9.54,0-17.274,7.734-17.274,17.275c0,9.54,7.734,17.274,17.274,17.274C262.922,426.51,270.654,418.775,270.654,409.235
					L270.654,409.235z"/>
			</g>
			<g id="CIRCLE_77_">
				<linearGradient id="SVGID_109_" gradientUnits="userSpaceOnUse" x1="245.8779" y1="398.5225" x2="260.88" y2="419.9476">
					<stop  offset="0" style="stop-color:#000000"/>
					<stop  offset="1" style="stop-color:#454545"/>
				</linearGradient>
				<path fill="url(#SVGID_109_)" d="M266.456,409.234c0-7.221-5.854-13.075-13.077-13.075c-7.222,0-13.076,5.854-13.076,13.075
					c0,7.222,5.854,13.077,13.076,13.077C260.602,422.312,266.456,416.456,266.456,409.234L266.456,409.234z"/>
			</g>
		</g>
		<g>
			<g id="CIRCLE_76_">
				<linearGradient id="SVGID_110_" gradientUnits="userSpaceOnUse" x1="318.2949" y1="425.1406" x2="331.798" y2="393.3293">
					<stop  offset="0" style="stop-color:#000000"/>
					<stop  offset="1" style="stop-color:#171717"/>
				</linearGradient>
				<path fill="url(#SVGID_110_)" stroke="#010101" stroke-miterlimit="10" d="M342.321,409.235c0-9.541-7.732-17.275-17.275-17.275
					c-9.54,0-17.274,7.734-17.274,17.275c0,9.54,7.734,17.274,17.274,17.274C334.589,426.51,342.321,418.775,342.321,409.235
					L342.321,409.235z"/>
			</g>
			<g id="CIRCLE_75_">
				<linearGradient id="SVGID_111_" gradientUnits="userSpaceOnUse" x1="317.5454" y1="398.5225" x2="332.5469" y2="419.9468">
					<stop  offset="0" style="stop-color:#000000"/>
					<stop  offset="1" style="stop-color:#454545"/>
				</linearGradient>
				<path fill="url(#SVGID_111_)" d="M338.123,409.234c0-7.221-5.854-13.075-13.077-13.075c-7.222,0-13.076,5.854-13.076,13.075
					c0,7.222,5.854,13.077,13.076,13.077C332.269,422.312,338.123,416.456,338.123,409.234L338.123,409.234z"/>
			</g>
		</g>
		<g>
			<g id="CIRCLE_74_">
				<linearGradient id="SVGID_112_" gradientUnits="userSpaceOnUse" x1="389.9619" y1="425.1406" x2="403.4652" y2="393.3288">
					<stop  offset="0" style="stop-color:#000000"/>
					<stop  offset="1" style="stop-color:#171717"/>
				</linearGradient>
				<path fill="url(#SVGID_112_)" stroke="#010101" stroke-miterlimit="10" d="M413.988,409.235c0-9.541-7.732-17.275-17.275-17.275
					c-9.54,0-17.274,7.734-17.274,17.275c0,9.54,7.734,17.274,17.274,17.274C406.256,426.51,413.988,418.775,413.988,409.235
					L413.988,409.235z"/>
			</g>
			<g id="CIRCLE_73_">
				<linearGradient id="SVGID_113_" gradientUnits="userSpaceOnUse" x1="389.2119" y1="398.5225" x2="404.214" y2="419.9476">
					<stop  offset="0" style="stop-color:#000000"/>
					<stop  offset="1" style="stop-color:#454545"/>
				</linearGradient>
				<path fill="url(#SVGID_113_)" d="M409.79,409.234c0-7.221-5.854-13.075-13.077-13.075c-7.222,0-13.076,5.854-13.076,13.075
					c0,7.222,5.854,13.077,13.076,13.077C403.936,422.312,409.79,416.456,409.79,409.234L409.79,409.234z"/>
			</g>
		</g>
	</g>
	<g>
		<g>
			<g id="CIRCLE_72_">
				<linearGradient id="SVGID_114_" gradientUnits="userSpaceOnUse" x1="461.2969" y1="426.1416" x2="474.8002" y2="394.3298">
					<stop  offset="0" style="stop-color:#000000"/>
					<stop  offset="1" style="stop-color:#171717"/>
				</linearGradient>
				<path fill="url(#SVGID_114_)" stroke="#010101" stroke-miterlimit="10" d="M485.323,410.236c0-9.541-7.732-17.275-17.275-17.275
					c-9.54,0-17.274,7.734-17.274,17.275c0,9.54,7.734,17.274,17.274,17.274C477.591,427.511,485.323,419.776,485.323,410.236
					L485.323,410.236z"/>
			</g>
			<g id="CIRCLE_71_">
				<linearGradient id="SVGID_115_" gradientUnits="userSpaceOnUse" x1="460.5469" y1="399.5234" x2="475.5489" y2="420.9486">
					<stop  offset="0" style="stop-color:#000000"/>
					<stop  offset="1" style="stop-color:#454545"/>
				</linearGradient>
				<path fill="url(#SVGID_115_)" d="M481.125,410.235c0-7.221-5.854-13.075-13.077-13.075c-7.222,0-13.076,5.854-13.076,13.075
					c0,7.222,5.854,13.077,13.076,13.077C475.271,423.312,481.125,417.457,481.125,410.235L481.125,410.235z"/>
			</g>
		</g>
		<g>
			<g id="CIRCLE_70_">
				<linearGradient id="SVGID_116_" gradientUnits="userSpaceOnUse" x1="533.6299" y1="426.1416" x2="547.1332" y2="394.3298">
					<stop  offset="0" style="stop-color:#000000"/>
					<stop  offset="1" style="stop-color:#171717"/>
				</linearGradient>
				<path fill="url(#SVGID_116_)" stroke="#010101" stroke-miterlimit="10" d="M557.656,410.236c0-9.541-7.732-17.275-17.275-17.275
					c-9.54,0-17.274,7.734-17.274,17.275c0,9.54,7.734,17.274,17.274,17.274C549.924,427.511,557.656,419.776,557.656,410.236
					L557.656,410.236z"/>
			</g>
			<g id="CIRCLE_69_">
				<linearGradient id="SVGID_117_" gradientUnits="userSpaceOnUse" x1="532.8799" y1="399.5225" x2="547.882" y2="420.9476">
					<stop  offset="0" style="stop-color:#000000"/>
					<stop  offset="1" style="stop-color:#454545"/>
				</linearGradient>
				<path fill="url(#SVGID_117_)" d="M553.458,410.235c0-7.221-5.854-13.075-13.077-13.075c-7.222,0-13.076,5.854-13.076,13.075
					c0,7.222,5.854,13.077,13.076,13.077C547.604,423.312,553.458,417.457,553.458,410.235L553.458,410.235z"/>
			</g>
		</g>
		<g>
			<g id="CIRCLE_68_">
				<linearGradient id="SVGID_118_" gradientUnits="userSpaceOnUse" x1="605.2969" y1="426.1416" x2="618.8002" y2="394.3298">
					<stop  offset="0" style="stop-color:#000000"/>
					<stop  offset="1" style="stop-color:#171717"/>
				</linearGradient>
				<path fill="url(#SVGID_118_)" stroke="#010101" stroke-miterlimit="10" d="M629.323,410.236c0-9.541-7.732-17.275-17.275-17.275
					c-9.54,0-17.274,7.734-17.274,17.275c0,9.54,7.734,17.274,17.274,17.274C621.591,427.511,629.323,419.776,629.323,410.236
					L629.323,410.236z"/>
			</g>
			<g id="CIRCLE_67_">
				<linearGradient id="SVGID_119_" gradientUnits="userSpaceOnUse" x1="604.5469" y1="399.5234" x2="619.5483" y2="420.9478">
					<stop  offset="0" style="stop-color:#000000"/>
					<stop  offset="1" style="stop-color:#454545"/>
				</linearGradient>
				<path fill="url(#SVGID_119_)" d="M625.125,410.235c0-7.221-5.854-13.075-13.077-13.075c-7.222,0-13.076,5.854-13.076,13.075
					c0,7.222,5.854,13.077,13.076,13.077C619.271,423.312,625.125,417.457,625.125,410.235L625.125,410.235z"/>
			</g>
		</g>
		<g>
			<g id="CIRCLE_66_">
				<linearGradient id="SVGID_120_" gradientUnits="userSpaceOnUse" x1="676.9648" y1="426.1416" x2="690.468" y2="394.3303">
					<stop  offset="0" style="stop-color:#000000"/>
					<stop  offset="1" style="stop-color:#171717"/>
				</linearGradient>
				<path fill="url(#SVGID_120_)" stroke="#010101" stroke-miterlimit="10" d="M700.99,410.236c0-9.541-7.732-17.275-17.275-17.275
					c-9.54,0-17.274,7.734-17.274,17.275c0,9.54,7.734,17.274,17.274,17.274C693.258,427.511,700.99,419.776,700.99,410.236
					L700.99,410.236z"/>
			</g>
			<g id="CIRCLE_65_">
				<linearGradient id="SVGID_121_" gradientUnits="userSpaceOnUse" x1="676.2139" y1="399.5234" x2="691.2165" y2="420.9494">
					<stop  offset="0" style="stop-color:#000000"/>
					<stop  offset="1" style="stop-color:#454545"/>
				</linearGradient>
				<path fill="url(#SVGID_121_)" d="M696.792,410.235c0-7.221-5.854-13.075-13.077-13.075c-7.222,0-13.076,5.854-13.076,13.075
					c0,7.222,5.854,13.077,13.076,13.077C690.938,423.312,696.792,417.457,696.792,410.235L696.792,410.235z"/>
			</g>
		</g>
	</g>
	<g>
		<linearGradient id="SVGID_122_" gradientUnits="userSpaceOnUse" x1="652.2822" y1="407.8281" x2="715.8184" y2="407.8281">
			<stop  offset="0" style="stop-color:#787878"/>
			<stop  offset="1" style="stop-color:#ABABAB"/>
		</linearGradient>
		<path fill="url(#SVGID_122_)" stroke="#000000" stroke-width="2" d="M672.084,434.981c1.56-2.215,1.127-4.891-1.053-6.502
			c-8.186-5.861-11.345-15.417-8.266-25c3.08-9.582,11.216-15.511,21.285-15.511c6.045-0.11,11.652,2.151,15.928,6.425
			c4.276,4.273,6.539,9.879,6.429,15.921c0,7.349-3.36,13.886-9.337,18.165c-2.211,1.584-2.655,4.267-1.071,6.478
			c1.585,2.21,4.269,2.653,6.48,1.069c11.586-8.296,16.058-21.822,11.698-35.386c-4.358-13.563-15.875-21.956-30.127-21.956
			s-25.769,8.393-30.128,21.956c-4.358,13.563,0.113,27.09,11.699,35.386C667.822,437.603,670.493,437.17,672.084,434.981z"/>
		<linearGradient id="SVGID_123_" gradientUnits="userSpaceOnUse" x1="580.2822" y1="407.8281" x2="643.8184" y2="407.8281">
			<stop  offset="0" style="stop-color:#787878"/>
			<stop  offset="1" style="stop-color:#ABABAB"/>
		</linearGradient>
		<path fill="url(#SVGID_123_)" stroke="#000000" stroke-width="2" d="M600.084,434.981c1.56-2.215,1.127-4.891-1.053-6.502
			c-8.186-5.861-11.345-15.417-8.266-25c3.08-9.582,11.216-15.511,21.285-15.511c6.045-0.11,11.652,2.151,15.928,6.425
			c4.276,4.273,6.539,9.879,6.429,15.921c0,7.349-3.36,13.886-9.337,18.165c-2.211,1.584-2.655,4.267-1.071,6.478
			c1.585,2.21,4.269,2.653,6.48,1.069c11.586-8.296,16.058-21.822,11.698-35.386c-4.358-13.563-15.875-21.956-30.127-21.956
			s-25.769,8.393-30.128,21.956c-4.358,13.563,0.113,27.09,11.699,35.386C595.822,437.603,598.493,437.17,600.084,434.981z"/>
		<linearGradient id="SVGID_124_" gradientUnits="userSpaceOnUse" x1="508.2822" y1="407.8281" x2="571.8184" y2="407.8281">
			<stop  offset="0" style="stop-color:#787878"/>
			<stop  offset="1" style="stop-color:#ABABAB"/>
		</linearGradient>
		<path fill="url(#SVGID_124_)" stroke="#000000" stroke-width="2" d="M528.083,434.981c1.561-2.215,1.128-4.891-1.052-6.502
			c-8.186-5.861-11.345-15.417-8.266-25c3.08-9.582,11.216-15.511,21.285-15.511c6.045-0.11,11.652,2.151,15.928,6.425
			c4.276,4.273,6.539,9.879,6.429,15.921c0,7.349-3.36,13.886-9.337,18.165c-2.211,1.584-2.655,4.267-1.071,6.478
			c1.585,2.21,4.269,2.653,6.48,1.069c11.586-8.296,16.058-21.822,11.698-35.386c-4.358-13.563-15.875-21.956-30.127-21.956
			s-25.769,8.393-30.128,21.956c-4.358,13.563,0.113,27.09,11.699,35.386C523.822,437.603,526.493,437.17,528.083,434.981z"/>
		<linearGradient id="SVGID_125_" gradientUnits="userSpaceOnUse" x1="436.2822" y1="407.8281" x2="499.8184" y2="407.8281">
			<stop  offset="0" style="stop-color:#787878"/>
			<stop  offset="1" style="stop-color:#ABABAB"/>
		</linearGradient>
		<path fill="url(#SVGID_125_)" stroke="#000000" stroke-width="2" d="M456.083,434.981c1.561-2.215,1.128-4.891-1.052-6.502
			c-8.186-5.861-11.345-15.417-8.266-25c3.08-9.582,11.216-15.511,21.285-15.511c6.045-0.11,11.652,2.151,15.928,6.425
			c4.276,4.273,6.539,9.879,6.429,15.921c0,7.349-3.36,13.886-9.337,18.165c-2.211,1.584-2.655,4.267-1.071,6.478
			c1.585,2.21,4.269,2.653,6.48,1.069c11.586-8.296,16.058-21.822,11.698-35.386c-4.358-13.563-15.875-21.956-30.127-21.956
			s-25.769,8.393-30.128,21.956c-4.358,13.563,0.113,27.09,11.699,35.386C451.822,437.603,454.493,437.17,456.083,434.981z"/>
		<linearGradient id="SVGID_126_" gradientUnits="userSpaceOnUse" x1="463.5547" y1="437.292" x2="472.5547" y2="437.292">
			<stop  offset="0" style="stop-color:#787878"/>
			<stop  offset="1" style="stop-color:#ABABAB"/>
		</linearGradient>
		<path fill="url(#SVGID_126_)" stroke="#000000" d="M472.555,437.292c0-2.635-1.863-4.498-4.5-4.498c-2.636,0-4.5,1.863-4.5,4.498
			s1.864,4.498,4.5,4.498C470.691,441.79,472.555,439.927,472.555,437.292z"/>
		<linearGradient id="SVGID_127_" gradientUnits="userSpaceOnUse" x1="535.5547" y1="437.292" x2="544.5547" y2="437.292">
			<stop  offset="0" style="stop-color:#787878"/>
			<stop  offset="1" style="stop-color:#ABABAB"/>
		</linearGradient>
		<path fill="url(#SVGID_127_)" stroke="#000000" d="M544.555,437.292c0-2.635-1.863-4.498-4.5-4.498c-2.636,0-4.5,1.863-4.5,4.498
			s1.864,4.498,4.5,4.498C542.691,441.79,544.555,439.927,544.555,437.292z"/>
		<linearGradient id="SVGID_128_" gradientUnits="userSpaceOnUse" x1="607.5547" y1="437.292" x2="616.5547" y2="437.292">
			<stop  offset="0" style="stop-color:#787878"/>
			<stop  offset="1" style="stop-color:#ABABAB"/>
		</linearGradient>
		<path fill="url(#SVGID_128_)" stroke="#000000" d="M616.555,437.292c0-2.635-1.863-4.498-4.5-4.498c-2.636,0-4.5,1.863-4.5,4.498
			s1.864,4.498,4.5,4.498C614.691,441.79,616.555,439.927,616.555,437.292z"/>
		<linearGradient id="SVGID_129_" gradientUnits="userSpaceOnUse" x1="679.5547" y1="437.292" x2="688.5547" y2="437.292">
			<stop  offset="0" style="stop-color:#787878"/>
			<stop  offset="1" style="stop-color:#ABABAB"/>
		</linearGradient>
		<path fill="url(#SVGID_129_)" stroke="#000000" d="M688.555,437.292c0-2.635-1.863-4.498-4.5-4.498c-2.636,0-4.5,1.863-4.5,4.498
			s1.864,4.498,4.5,4.498C686.691,441.79,688.555,439.927,688.555,437.292z"/>
	</g>
	<g>
		<g>
			<g id="POLYLINE_52_">
				<path fill="#010101" d="M115.542,505.561l-14.909-0.002c-9.769-0.002-17.689-7.846-17.688-17.518l0.002-14.763
					c0.001-9.673,7.924-17.512,17.692-17.51l14.909,0.002c9.77,0.001,17.689,7.842,17.688,17.515l-0.002,14.763
					C133.233,497.72,125.311,505.562,115.542,505.561z"/>
			</g>
			<g id="POLYLINE_51_">
				
					<linearGradient id="SVGID_130_" gradientUnits="userSpaceOnUse" x1="97.0938" y1="503.2168" x2="119.0556" y2="458.1882" gradientTransform="matrix(1 1.255572e-04 -1.255572e-04 1 0.075 -0.053)">
					<stop  offset="0" style="stop-color:#787878"/>
					<stop  offset="1" style="stop-color:#ABABAB"/>
				</linearGradient>
				<path fill="url(#SVGID_130_)" stroke="#C0BFBF" d="M114.836,503.435l-13.499-0.001c-8.847-0.001-16.02-7.176-16.019-16.022
					l0.002-13.501c0.001-8.848,7.175-16.018,16.022-16.017l13.499,0.001c8.848,0.002,16.02,7.174,16.019,16.021l-0.002,13.501
					C130.858,496.264,123.684,503.437,114.836,503.435z"/>
			</g>
		</g>
		<g>
			<g id="POLYLINE_50_">
				<path fill="#010101" d="M115.542,434.308l-14.909-0.002c-9.769-0.002-17.689-7.846-17.688-17.518l0.002-14.763
					c0.001-9.673,7.924-17.512,17.692-17.51l14.909,0.002c9.77,0.001,17.689,7.842,17.688,17.515l-0.002,14.763
					C133.233,426.467,125.311,434.309,115.542,434.308z"/>
			</g>
			<g id="POLYLINE_49_">
				
					<linearGradient id="SVGID_131_" gradientUnits="userSpaceOnUse" x1="97.084" y1="431.9639" x2="119.046" y2="386.9351" gradientTransform="matrix(1 1.255572e-04 -1.255572e-04 1 0.075 -0.053)">
					<stop  offset="0" style="stop-color:#787878"/>
					<stop  offset="1" style="stop-color:#ABABAB"/>
				</linearGradient>
				<path fill="url(#SVGID_131_)" stroke="#C0BFBF" d="M114.836,432.182l-13.499-0.001c-8.847-0.001-16.02-7.176-16.019-16.022
					l0.002-13.501c0.001-8.848,7.175-16.018,16.022-16.017l13.499,0.001c8.848,0.002,16.02,7.174,16.019,16.021l-0.002,13.501
					C130.858,425.011,123.684,432.184,114.836,432.182z"/>
			</g>
		</g>
		<g>
			<g id="POLYLINE_48_">
				<path fill="#010101" d="M115.542,363.057l-14.909-0.002c-9.769-0.002-17.689-7.846-17.688-17.518l0.002-14.763
					c0.001-9.673,7.924-17.512,17.692-17.51l14.909,0.002c9.77,0.001,17.689,7.842,17.688,17.515l-0.002,14.763
					C133.233,355.216,125.311,363.058,115.542,363.057z"/>
			</g>
			<g id="POLYLINE_47_">
				
					<linearGradient id="SVGID_132_" gradientUnits="userSpaceOnUse" x1="97.0757" y1="360.7129" x2="119.0377" y2="315.6841" gradientTransform="matrix(1 1.255572e-04 -1.255572e-04 1 0.075 -0.053)">
					<stop  offset="0" style="stop-color:#787878"/>
					<stop  offset="1" style="stop-color:#ABABAB"/>
				</linearGradient>
				<path fill="url(#SVGID_132_)" stroke="#C0BFBF" d="M114.836,360.931l-13.499-0.001c-8.847-0.001-16.02-7.176-16.019-16.022
					l0.002-13.501c0.001-8.848,7.175-16.018,16.022-16.017l13.499,0.001c8.848,0.002,16.02,7.174,16.019,16.021l-0.002,13.501
					C130.858,353.76,123.684,360.933,114.836,360.931z"/>
			</g>
		</g>
		<g>
			<g id="POLYLINE_46_">
				<path fill="#010101" d="M115.542,291.805l-14.909-0.002c-9.769-0.002-17.689-7.846-17.688-17.518l0.002-14.763
					c0.001-9.673,7.924-17.512,17.692-17.51l14.909,0.002c9.77,0.001,17.689,7.842,17.688,17.515l-0.002,14.763
					C133.233,283.964,125.311,291.806,115.542,291.805z"/>
			</g>
			<g id="POLYLINE_45_">
				
					<linearGradient id="SVGID_133_" gradientUnits="userSpaceOnUse" x1="97.0674" y1="289.4609" x2="119.0294" y2="244.4321" gradientTransform="matrix(1 1.255572e-04 -1.255572e-04 1 0.075 -0.053)">
					<stop  offset="0" style="stop-color:#787878"/>
					<stop  offset="1" style="stop-color:#ABABAB"/>
				</linearGradient>
				<path fill="url(#SVGID_133_)" stroke="#C0BFBF" d="M114.836,289.679l-13.499-0.001c-8.847-0.001-16.02-7.176-16.019-16.022
					l0.002-13.501c0.001-8.848,7.175-16.018,16.022-16.017l13.499,0.001c8.848,0.002,16.02,7.174,16.019,16.021l-0.002,13.501
					C130.858,282.508,123.684,289.681,114.836,289.679z"/>
			</g>
		</g>
		<g>
			<g id="POLYLINE_44_">
				<path fill="#010101" d="M115.542,220.554l-14.909-0.002c-9.769-0.002-17.689-7.846-17.688-17.518l0.002-14.763
					c0.001-9.673,7.924-17.512,17.692-17.51l14.909,0.002c9.77,0.001,17.689,7.842,17.688,17.515l-0.002,14.763
					C133.233,212.713,125.311,220.555,115.542,220.554z"/>
			</g>
			<g id="POLYLINE_43_">
				
					<linearGradient id="SVGID_134_" gradientUnits="userSpaceOnUse" x1="97.0586" y1="218.2109" x2="119.0206" y2="173.1821" gradientTransform="matrix(1 1.255572e-04 -1.255572e-04 1 0.075 -0.053)">
					<stop  offset="0" style="stop-color:#787878"/>
					<stop  offset="1" style="stop-color:#ABABAB"/>
				</linearGradient>
				<path fill="url(#SVGID_134_)" stroke="#C0BFBF" d="M114.836,218.428l-13.499-0.001c-8.847-0.001-16.02-7.176-16.019-16.022
					l0.002-13.501c0.001-8.848,7.175-16.018,16.022-16.017l13.499,0.001c8.848,0.002,16.02,7.174,16.019,16.021l-0.002,13.501
					C130.858,211.257,123.684,218.43,114.836,218.428z"/>
			</g>
		</g>
		<g>
			<g id="POLYLINE_42_">
				<path fill="#010101" d="M187.666,505.569l-14.909-0.002c-9.769-0.001-17.689-7.845-17.688-17.517l0.002-14.763
					c0.001-9.673,7.924-17.512,17.692-17.511l14.909,0.002c9.77,0.001,17.689,7.842,17.688,17.515l-0.002,14.763
					C205.357,497.729,197.436,505.57,187.666,505.569z"/>
			</g>
			<g id="POLYLINE_41_">
				
					<linearGradient id="SVGID_135_" gradientUnits="userSpaceOnUse" x1="169.2178" y1="503.2168" x2="191.1795" y2="458.1887" gradientTransform="matrix(1 1.255572e-04 -1.255572e-04 1 0.075 -0.053)">
					<stop  offset="0" style="stop-color:#787878"/>
					<stop  offset="1" style="stop-color:#ABABAB"/>
				</linearGradient>
				<path fill="url(#SVGID_135_)" stroke="#C0BFBF" d="M186.961,503.444l-13.499-0.002c-8.847-0.001-16.02-7.176-16.019-16.022
					l0.002-13.501c0.001-8.848,7.176-16.018,16.022-16.017l13.499,0.002c8.849,0.001,16.02,7.173,16.019,16.021l-0.002,13.501
					C202.982,496.272,195.809,503.445,186.961,503.444z"/>
			</g>
		</g>
		<g>
			<g id="POLYLINE_40_">
				<path fill="#010101" d="M259.791,505.578l-14.909-0.002c-9.769-0.001-17.689-7.845-17.688-17.517l0.002-14.763
					c0.001-9.673,7.924-17.512,17.692-17.511l14.909,0.002c9.77,0.001,17.689,7.842,17.688,17.515l-0.002,14.763
					C277.482,497.737,269.56,505.579,259.791,505.578z"/>
			</g>
			<g id="POLYLINE_39_">
				
					<linearGradient id="SVGID_136_" gradientUnits="userSpaceOnUse" x1="241.3428" y1="503.2168" x2="263.3046" y2="458.1884" gradientTransform="matrix(1 1.255572e-04 -1.255572e-04 1 0.075 -0.053)">
					<stop  offset="0" style="stop-color:#787878"/>
					<stop  offset="1" style="stop-color:#ABABAB"/>
				</linearGradient>
				<path fill="url(#SVGID_136_)" stroke="#C0BFBF" d="M259.086,503.453l-13.499-0.002c-8.847-0.001-16.02-7.176-16.019-16.022
					l0.002-13.501c0.001-8.848,7.175-16.018,16.022-16.017l13.499,0.002c8.848,0.001,16.02,7.173,16.019,16.021l-0.002,13.501
					C275.107,496.281,267.934,503.454,259.086,503.453z"/>
			</g>
		</g>
		<g>
			<g id="POLYLINE_38_">
				<path fill="#010101" d="M331.916,505.587l-14.909-0.002c-9.769-0.001-17.689-7.845-17.688-17.517l0.002-14.763
					c0.001-9.673,7.924-17.512,17.692-17.511l14.909,0.002c9.77,0.002,17.689,7.843,17.688,17.516l-0.002,14.763
					C349.607,497.747,341.685,505.589,331.916,505.587z"/>
			</g>
			<g id="POLYLINE_37_">
				
					<linearGradient id="SVGID_137_" gradientUnits="userSpaceOnUse" x1="313.4678" y1="503.2158" x2="335.4298" y2="458.187" gradientTransform="matrix(1 1.255572e-04 -1.255572e-04 1 0.075 -0.053)">
					<stop  offset="0" style="stop-color:#787878"/>
					<stop  offset="1" style="stop-color:#ABABAB"/>
				</linearGradient>
				<path fill="url(#SVGID_137_)" stroke="#C0BFBF" d="M331.211,503.462l-13.499-0.002c-8.848-0.001-16.02-7.176-16.019-16.022
					l0.002-13.501c0.001-8.848,7.175-16.018,16.022-16.017l13.499,0.002c8.849,0.001,16.02,7.173,16.019,16.021l-0.002,13.501
					C347.232,496.29,340.059,503.463,331.211,503.462z"/>
			</g>
		</g>
		<g>
			<g id="POLYLINE_36_">
				<path fill="#010101" d="M404.041,505.597l-14.91-0.002c-9.768-0.002-17.689-7.846-17.688-17.518l0.002-14.763
					c0-9.673,7.924-17.512,17.691-17.51l14.91,0.002c9.77,0.001,17.689,7.842,17.688,17.515l-0.002,14.763
					C421.732,497.756,413.811,505.598,404.041,505.597z"/>
			</g>
			<g id="POLYLINE_35_">
				
					<linearGradient id="SVGID_138_" gradientUnits="userSpaceOnUse" x1="385.5933" y1="503.2168" x2="407.5552" y2="458.1882" gradientTransform="matrix(1 1.255572e-04 -1.255572e-04 1 0.075 -0.053)">
					<stop  offset="0" style="stop-color:#787878"/>
					<stop  offset="1" style="stop-color:#ABABAB"/>
				</linearGradient>
				<path fill="url(#SVGID_138_)" stroke="#C0BFBF" d="M403.336,503.472l-13.5-0.002c-8.846-0.001-16.02-7.176-16.018-16.022
					l0.002-13.501c0-8.848,7.176-16.018,16.021-16.017l13.5,0.002c8.848,0.001,16.02,7.173,16.018,16.021l-0.002,13.501
					C419.357,496.3,412.184,503.473,403.336,503.472z"/>
			</g>
		</g>
		<g>
			<g id="POLYLINE_26_">
				<path fill="#010101" d="M476.165,505.605l-14.909-0.002c-9.769-0.001-17.689-7.845-17.688-17.517l0.002-14.763
					c0.001-9.673,7.924-17.512,17.692-17.511l14.909,0.002c9.77,0.001,17.689,7.842,17.688,17.515l-0.002,14.763
					C493.856,497.765,485.935,505.606,476.165,505.605z"/>
			</g>
			<g id="POLYLINE_25_">
				
					<linearGradient id="SVGID_139_" gradientUnits="userSpaceOnUse" x1="457.7168" y1="503.2168" x2="479.6786" y2="458.1884" gradientTransform="matrix(1 1.255572e-04 -1.255572e-04 1 0.075 -0.053)">
					<stop  offset="0" style="stop-color:#787878"/>
					<stop  offset="1" style="stop-color:#ABABAB"/>
				</linearGradient>
				<path fill="url(#SVGID_139_)" stroke="#C0BFBF" d="M475.46,503.48l-13.499-0.002c-8.847-0.001-16.02-7.176-16.019-16.022
					l0.002-13.501c0.001-8.848,7.176-16.018,16.022-16.017l13.499,0.002c8.848,0.001,16.02,7.173,16.019,16.021l-0.002,13.501
					C491.481,496.309,484.308,503.481,475.46,503.48z"/>
			</g>
		</g>
		<g>
			<g id="POLYLINE_24_">
				<path fill="#010101" d="M548.29,505.614l-14.909-0.002c-9.769-0.001-17.689-7.845-17.688-17.517l0.002-14.763
					c0.001-9.673,7.924-17.512,17.692-17.511l14.909,0.002c9.77,0.001,17.689,7.842,17.688,17.515l-0.002,14.763
					C565.981,497.773,558.06,505.615,548.29,505.614z"/>
			</g>
			<g id="POLYLINE_23_">
				
					<linearGradient id="SVGID_140_" gradientUnits="userSpaceOnUse" x1="529.8428" y1="503.2168" x2="551.8044" y2="458.1887" gradientTransform="matrix(1 1.255572e-04 -1.255572e-04 1 0.075 -0.053)">
					<stop  offset="0" style="stop-color:#787878"/>
					<stop  offset="1" style="stop-color:#ABABAB"/>
				</linearGradient>
				<path fill="url(#SVGID_140_)" stroke="#C0BFBF" d="M547.585,503.489l-13.499-0.002c-8.847-0.001-16.02-7.176-16.019-16.022
					l0.002-13.501c0.001-8.848,7.176-16.018,16.022-16.017l13.499,0.002c8.848,0.001,16.02,7.173,16.019,16.021l-0.002,13.501
					C563.606,496.317,556.433,503.49,547.585,503.489z"/>
			</g>
		</g>
		<g>
			<g id="POLYLINE_22_">
				<path fill="#010101" d="M620.415,505.623l-14.909-0.002c-9.769-0.001-17.689-7.845-17.688-17.517l0.002-14.763
					c0.001-9.673,7.924-17.512,17.692-17.511l14.909,0.002c9.77,0.002,17.689,7.843,17.688,17.516l-0.002,14.763
					C638.106,497.783,630.185,505.625,620.415,505.623z"/>
			</g>
			<g id="POLYLINE_21_">
				
					<linearGradient id="SVGID_141_" gradientUnits="userSpaceOnUse" x1="601.9668" y1="503.2168" x2="623.9287" y2="458.1882" gradientTransform="matrix(1 1.255572e-04 -1.255572e-04 1 0.075 -0.053)">
					<stop  offset="0" style="stop-color:#787878"/>
					<stop  offset="1" style="stop-color:#ABABAB"/>
				</linearGradient>
				<path fill="url(#SVGID_141_)" stroke="#C0BFBF" d="M619.71,503.498l-13.499-0.001c-8.847-0.002-16.02-7.177-16.019-16.023
					l0.002-13.501c0.001-8.848,7.176-16.018,16.022-16.016l13.499,0.001c8.848,0.001,16.02,7.173,16.019,16.021l-0.002,13.501
					C635.731,496.326,628.558,503.499,619.71,503.498z"/>
			</g>
		</g>
		<g>
			<g id="POLYLINE_20_">
				<path fill="#010101" d="M692.539,505.623l-14.909-0.002c-9.769-0.001-17.689-7.845-17.688-17.517l0.002-14.763
					c0.001-9.673,7.924-17.512,17.692-17.511l14.909,0.002c9.77,0.002,17.689,7.843,17.688,17.516l-0.002,14.763
					C710.23,497.783,702.309,505.625,692.539,505.623z"/>
			</g>
			<g id="POLYLINE_19_">
				
					<linearGradient id="SVGID_142_" gradientUnits="userSpaceOnUse" x1="674.0918" y1="503.207" x2="696.0537" y2="458.1785" gradientTransform="matrix(1 1.255572e-04 -1.255572e-04 1 0.075 -0.053)">
					<stop  offset="0" style="stop-color:#787878"/>
					<stop  offset="1" style="stop-color:#ABABAB"/>
				</linearGradient>
				<path fill="url(#SVGID_142_)" stroke="#C0BFBF" d="M691.834,503.498l-13.499-0.001c-8.847-0.002-16.02-7.177-16.019-16.023
					l0.002-13.501c0.001-8.848,7.176-16.018,16.022-16.016l13.499,0.001c8.848,0.001,16.02,7.173,16.019,16.021l-0.002,13.501
					C707.855,496.326,700.682,503.499,691.834,503.498z"/>
			</g>
		</g>
	</g>
</g>
</svg>
